<?xml version="1.0" standalone="no"?>
<!DOCTYPE svg PUBLIC "-//W3C//DTD SVG 1.1//EN"
"http://www.w3.org/Graphics/SVG/1.1/DTD/svg11.dtd">
<!-- Creator: fig2dev Version 3.2 Patchlevel 5 -->
<!-- CreationDate: Mon May 26 01:48:13 2014 -->
<!-- Magnification: 1.050 -->
<svg xmlns="http://www.w3.org/2000/svg" width="8.5in" height="8.5in" viewBox="2606 -1611 10184 10243">
<g style="stroke-width:.025in; stroke:black; fill:none">
<!-- Line -->
<polyline points="5128,6098
5126,6099
5122,6100
5114,6103
5102,6109
5084,6116
5060,6125
5030,6137
4995,6152
4953,6167
4904,6186
4852,6207
4794,6229
4732,6253
4668,6278
4602,6303
4535,6328
4467,6353
4398,6377
4331,6402
4266,6426
4202,6448
4140,6469
4080,6489
4023,6508
3967,6525
3914,6541
3864,6556
3816,6569
3770,6581
3725,6592
3683,6601
3644,6608
3605,6616
3568,6621
3531,6626
3497,6629
3462,6632
3428,6634
3396,6634
3358,6633
3321,6632
3285,6628
3248,6624
3212,6618
3177,6612
3142,6603
3108,6595
3074,6584
3041,6573
3008,6560
2976,6546
2945,6532
2915,6516
2887,6499
2858,6481
2832,6462
2807,6444
2783,6424
2760,6403
2739,6383
2720,6361
2702,6340
2685,6318
2670,6296
2658,6274
2646,6251
2636,6229
2627,6207
2621,6185
2616,6163
2613,6141
2611,6120
2609,6098
2611,6076
2613,6055
2616,6033
2621,6011
2628,5989
2636,5967
2646,5945
2658,5923
2670,5901
2685,5879
2702,5857
2720,5836
2740,5814
2761,5794
2783,5773
2807,5753
2832,5734
2859,5715
2887,5697
2916,5680
2946,5665
2977,5650
3008,5636
3041,5624
3075,5612
3108,5602
3143,5593
3177,5585
3213,5579
3249,5572
3285,5568
3321,5565
3359,5564
3397,5563
3429,5563
3463,5565
3497,5567
3532,5570
3568,5575
3606,5581
3645,5588
3685,5595
3727,5605
3771,5615
3817,5628
3864,5640
3914,5655
3968,5671
4023,5689
4080,5708
4140,5728
4202,5749
4266,5771
4332,5795
4400,5819
4467,5843
4535,5868
4602,5893
4668,5919
4733,5944
4794,5967
4852,5989
4904,6010
4953,6029
4995,6045
5030,6059
5060,6071
5084,6080
5102,6088
5114,6093
5122,6096
5126,6097
5128,6098
" style="stroke:#ff0000;stroke-width:0;
stroke-linejoin:bevel; stroke-linecap:butt;
fill:#d8d8ff;
"/>
<!-- Line -->
<polyline points="5126,6100
5127,6102
5128,6107
5131,6114
5137,6127
5144,6144
5153,6169
5165,6198
5180,6234
5195,6276
5214,6324
5235,6376
5257,6434
5280,6496
5306,6560
5331,6626
5356,6693
5381,6762
5405,6830
5429,6897
5454,6962
5476,7026
5497,7088
5517,7148
5535,7206
5553,7261
5569,7314
5584,7364
5596,7413
5609,7459
5619,7503
5629,7545
5636,7585
5644,7624
5649,7660
5654,7697
5657,7732
5659,7766
5661,7800
5661,7833
5661,7870
5659,7907
5656,7944
5652,7981
5647,8016
5639,8051
5632,8087
5623,8120
5612,8155
5601,8187
5588,8220
5574,8253
5560,8283
5544,8313
5527,8342
5509,8370
5491,8396
5471,8422
5451,8446
5432,8469
5411,8490
5390,8509
5367,8527
5346,8543
5324,8558
5302,8571
5280,8582
5258,8593
5236,8601
5214,8607
5192,8613
5170,8616
5148,8618
5127,8619
5105,8618
5084,8616
5062,8613
5040,8607
5018,8600
4996,8593
4974,8582
4952,8571
4930,8558
4908,8543
4886,8527
4865,8509
4843,8489
4822,8468
4802,8446
4782,8422
4763,8396
4744,8369
4726,8342
4709,8312
4693,8282
4679,8251
4665,8220
4653,8187
4641,8154
4630,8120
4621,8086
4614,8051
4606,8015
4601,7980
4597,7944
4594,7907
4592,7869
4592,7832
4592,7799
4594,7765
4596,7732
4599,7696
4603,7660
4609,7623
4616,7584
4624,7544
4634,7502
4644,7458
4656,7412
4669,7364
4684,7314
4700,7260
4718,7206
4735,7148
4755,7088
4776,7026
4800,6962
4823,6896
4847,6829
4872,6762
4897,6693
4922,6626
4946,6560
4972,6495
4995,6434
5017,6376
5038,6324
5057,6276
5072,6234
5087,6198
5099,6169
5108,6144
5116,6127
5121,6114
5124,6107
5125,6102
5126,6100
" style="stroke:#ff0000;stroke-width:0;
stroke-linejoin:bevel; stroke-linecap:butt;
fill:#d8d8ff;
"/>
<!-- Line -->
<polyline points="5126,6096
5128,6097
5132,6098
5140,6101
5152,6107
5170,6114
5194,6123
5224,6135
5259,6150
5301,6165
5350,6184
5402,6205
5460,6227
5522,6250
5586,6276
5652,6301
5719,6326
5787,6351
5856,6375
5923,6400
5988,6424
6052,6446
6114,6467
6174,6487
6232,6506
6287,6523
6340,6539
6390,6554
6438,6566
6485,6579
6529,6590
6571,6599
6611,6606
6649,6614
6687,6619
6723,6624
6758,6627
6792,6629
6826,6632
6858,6632
6896,6632
6934,6629
6971,6626
7006,6622
7042,6617
7078,6609
7112,6602
7147,6593
7181,6582
7214,6571
7247,6558
7278,6544
7309,6530
7339,6514
7369,6497
7396,6479
7423,6461
7448,6441
7472,6422
7495,6402
7516,6381
7535,6360
7553,6338
7570,6317
7585,6295
7597,6272
7609,6250
7618,6228
7627,6206
7634,6184
7639,6162
7643,6140
7645,6118
7646,6097
7645,6075
7643,6054
7638,6032
7634,6010
7627,5988
7618,5966
7609,5944
7597,5922
7584,5900
7569,5878
7553,5856
7535,5835
7516,5813
7495,5792
7471,5772
7447,5752
7422,5733
7396,5714
7367,5696
7338,5679
7309,5664
7277,5649
7246,5635
7213,5623
7180,5611
7146,5601
7111,5591
7077,5584
7041,5576
7005,5571
6970,5567
6933,5564
6895,5562
6857,5562
6825,5562
6791,5564
6758,5566
6722,5569
6686,5573
6648,5580
6609,5586
6570,5594
6528,5604
6483,5614
6437,5626
6390,5639
6340,5654
6286,5670
6232,5688
6174,5706
6114,5725
6052,5746
5988,5770
5922,5793
5855,5817
5787,5842
5719,5867
5652,5892
5586,5917
5521,5942
5460,5965
5402,5987
5350,6008
5301,6027
5259,6043
5224,6057
5194,6069
5170,6078
5152,6086
5140,6091
5132,6094
5128,6095
5126,6096
" style="stroke:#ff0000;stroke-width:0;
stroke-linejoin:bevel; stroke-linecap:butt;
fill:#d8d8ff;
"/>
<!-- Line -->
<polyline points="5126,6096
5127,6094
5128,6090
5131,6082
5137,6070
5144,6052
5153,6028
5165,5998
5180,5963
5195,5921
5214,5872
5235,5820
5257,5762
5281,5700
5306,5636
5331,5570
5356,5503
5381,5435
5406,5366
5430,5299
5454,5234
5476,5170
5498,5108
5518,5048
5537,4991
5553,4935
5569,4882
5584,4832
5597,4784
5609,4738
5619,4693
5629,4651
5637,4612
5645,4573
5650,4536
5654,4499
5658,4465
5660,4430
5661,4396
5662,4364
5661,4326
5660,4289
5657,4253
5653,4216
5647,4180
5640,4145
5632,4110
5624,4076
5613,4041
5602,4009
5589,3976
5575,3944
5561,3913
5545,3883
5528,3855
5510,3826
5491,3800
5472,3775
5453,3751
5432,3728
5412,3707
5390,3688
5369,3670
5346,3653
5324,3638
5302,3626
5280,3614
5258,3604
5236,3595
5214,3589
5192,3584
5170,3580
5149,3577
5127,3577
5105,3577
5084,3580
5062,3584
5040,3589
5018,3595
4996,3604
4974,3614
4952,3626
4930,3638
4908,3653
4886,3670
4865,3688
4843,3707
4823,3728
4802,3751
4782,3775
4763,3800
4744,3826
4726,3855
4709,3883
4693,3913
4679,3944
4665,3976
4653,4009
4641,4041
4630,4076
4621,4110
4614,4145
4606,4180
4601,4216
4597,4253
4594,4289
4592,4326
4592,4364
4592,4396
4594,4430
4596,4465
4599,4499
4603,4536
4609,4573
4616,4612
4624,4651
4634,4693
4644,4738
4656,4784
4669,4832
4684,4882
4700,4935
4718,4991
4735,5048
4755,5108
4776,5170
4800,5234
4823,5299
4847,5366
4872,5435
4897,5503
4922,5570
4946,5636
4972,5700
4995,5762
5017,5820
5038,5872
5057,5921
5072,5963
5087,5998
5099,6028
5108,6052
5116,6070
5121,6082
5124,6090
5125,6094
5126,6096
" style="stroke:#ff0000;stroke-width:0;
stroke-linejoin:bevel; stroke-linecap:butt;
fill:#d8d8ff;
"/>
<!-- Line -->
<polyline points="10272,6110
10270,6111
10266,6112
10259,6115
10246,6120
10228,6128
10204,6137
10175,6149
10139,6163
10097,6179
10049,6198
9996,6219
9939,6241
9877,6264
9813,6289
9746,6314
9679,6340
9611,6365
9543,6389
9476,6413
9411,6437
9346,6459
9285,6480
9225,6500
9167,6519
9111,6537
9059,6553
9008,6567
8960,6580
8914,6593
8870,6603
8828,6613
8788,6620
8749,6627
8712,6633
8676,6638
8641,6641
8606,6643
8573,6645
8540,6645
8502,6644
8466,6643
8429,6640
8392,6636
8356,6629
8322,6623
8286,6615
8253,6606
8218,6596
8185,6584
8153,6572
8120,6558
8090,6543
8059,6528
8031,6511
8003,6493
7976,6474
7951,6455
7927,6435
7904,6414
7883,6394
7864,6372
7846,6351
7829,6329
7815,6307
7802,6285
7791,6263
7780,6241
7772,6219
7765,6197
7760,6175
7757,6153
7755,6132
7754,6110
7755,6088
7757,6067
7760,6045
7765,6023
7773,6001
7780,5979
7791,5956
7802,5934
7815,5912
7829,5890
7846,5868
7864,5847
7884,5825
7905,5805
7927,5784
7951,5764
7976,5745
8004,5727
8031,5709
8060,5692
8091,5676
8121,5661
8153,5648
8185,5635
8219,5624
8253,5613
8287,5605
8322,5596
8358,5590
8393,5584
8429,5580
8466,5576
8503,5575
8541,5574
8574,5574
8607,5576
8641,5579
8677,5582
8712,5587
8750,5592
8789,5600
8829,5607
8871,5616
8915,5627
8961,5639
9008,5652
9059,5667
9112,5682
9167,5700
9225,5719
9285,5739
9346,5760
9411,5782
9477,5806
9544,5830
9611,5855
9679,5880
9746,5905
9813,5930
9878,5955
9939,5979
9996,6001
10049,6022
10097,6040
10139,6056
10175,6071
10204,6082
10228,6092
10246,6099
10259,6104
10266,6108
10270,6109
10272,6110
" style="stroke:#ff0000;stroke-width:0;
stroke-linejoin:bevel; stroke-linecap:butt;
fill:#d8d8ff;
"/>
<!-- Line -->
<polyline points="10270,6112
10271,6114
10272,6118
10276,6125
10281,6138
10288,6156
10298,6180
10309,6209
10324,6245
10340,6287
10359,6335
10380,6388
10402,6446
10425,6508
10450,6572
10475,6638
10500,6705
10525,6773
10550,6841
10574,6909
10598,6974
10620,7038
10641,7100
10661,7160
10680,7217
10698,7273
10713,7325
10728,7376
10741,7424
10753,7470
10764,7514
10773,7556
10781,7596
10788,7635
10793,7672
10798,7709
10802,7743
10804,7778
10806,7812
10806,7844
10806,7882
10804,7919
10801,7955
10796,7992
10791,8028
10784,8062
10776,8098
10767,8132
10756,8166
10745,8199
10732,8232
10719,8264
10704,8295
10688,8325
10671,8353
10654,8382
10636,8408
10616,8433
10596,8457
10576,8480
10555,8501
10534,8520
10512,8538
10491,8555
10469,8570
10447,8582
10425,8594
10403,8604
10381,8613
10359,8619
10337,8624
10314,8627
10292,8629
10271,8630
10249,8629
10228,8627
10206,8624
10184,8619
10162,8612
10140,8604
10118,8594
10096,8582
10074,8570
10052,8555
10030,8538
10009,8520
9987,8500
9966,8479
9946,8457
9926,8433
9907,8408
9888,8381
9870,8353
9854,8324
9838,8293
9823,8263
9809,8232
9797,8199
9785,8165
9775,8132
9765,8097
9758,8062
9751,8027
9745,7991
9741,7955
9738,7919
9736,7881
9736,7843
9736,7811
9738,7777
9740,7743
9743,7708
9748,7672
9754,7634
9760,7595
9769,7555
9778,7513
9788,7469
9800,7423
9814,7376
9828,7325
9844,7272
9862,7217
9880,7160
9900,7100
9921,7038
9944,6974
9967,6908
9991,6840
10016,6773
10041,6705
10067,6638
10091,6572
10116,6507
10139,6446
10161,6388
10182,6335
10201,6287
10217,6245
10232,6209
10243,6180
10253,6156
10260,6138
10265,6125
10268,6118
10269,6114
10270,6112
" style="stroke:#ff0000;stroke-width:0;
stroke-linejoin:bevel; stroke-linecap:butt;
fill:#d8d8ff;
"/>
<!-- Line -->
<polyline points="10270,6108
10272,6109
10277,6110
10284,6113
10297,6118
10314,6125
10339,6135
10368,6146
10404,6161
10446,6177
10494,6196
10546,6217
10604,6239
10666,6262
10730,6287
10796,6312
10864,6338
10932,6363
11000,6387
11067,6411
11132,6435
11196,6457
11258,6478
11318,6498
11376,6517
11432,6535
11484,6551
11534,6565
11583,6578
11629,6591
11673,6601
11715,6611
11755,6618
11794,6625
11832,6630
11867,6636
11902,6639
11937,6641
11970,6643
12003,6643
12040,6643
12078,6641
12115,6638
12151,6634
12186,6628
12222,6621
12257,6614
12291,6604
12325,6594
12359,6582
12391,6570
12423,6556
12453,6541
12483,6525
12513,6509
12540,6491
12567,6473
12593,6453
12617,6433
12639,6413
12660,6392
12680,6371
12698,6349
12714,6328
12729,6306
12742,6284
12753,6262
12763,6240
12771,6218
12779,6196
12784,6174
12787,6152
12789,6130
12790,6109
12789,6087
12787,6066
12783,6044
12779,6022
12771,6000
12763,5977
12753,5955
12742,5933
12728,5911
12713,5889
12698,5867
12680,5846
12660,5824
12639,5803
12616,5783
12592,5763
12566,5744
12540,5725
12512,5708
12482,5691
12453,5675
12422,5660
12390,5647
12358,5634
12324,5623
12290,5612
12256,5603
12221,5595
12185,5588
12150,5583
12114,5579
12077,5575
12039,5573
12002,5573
11969,5573
11935,5575
11902,5577
11866,5581
11830,5585
11793,5591
11754,5597
11714,5606
11672,5615
11628,5626
11582,5637
11534,5651
11484,5666
11430,5681
11376,5699
11318,5717
11258,5737
11196,5758
11132,5781
11066,5804
10999,5828
10932,5854
10864,5879
10796,5904
10730,5928
10665,5953
10604,5976
10546,5998
10494,6019
10446,6038
10404,6054
10368,6069
10339,6080
10314,6090
10297,6097
10284,6102
10277,6106
10272,6107
10270,6108
" style="stroke:#ff0000;stroke-width:0;
stroke-linejoin:bevel; stroke-linecap:butt;
fill:#d8d8ff;
"/>
<!-- Line -->
<polyline points="10270,6108
10271,6106
10272,6101
10276,6094
10281,6081
10288,6064
10298,6039
10309,6010
10324,5974
10340,5932
10359,5884
10380,5832
10402,5774
10426,5712
10450,5648
10475,5582
10500,5514
10525,5446
10551,5378
10575,5311
10598,5246
10620,5182
10642,5120
10662,5060
10681,5002
10698,4946
10713,4894
10728,4844
10742,4795
10753,4749
10764,4705
10773,4663
10782,4623
10789,4584
10794,4548
10798,4511
10803,4476
10805,4441
10806,4408
10807,4375
10806,4338
10805,4301
10802,4264
10797,4227
10791,4192
10785,4157
10776,4121
10768,4088
10758,4053
10746,4020
10733,3988
10720,3955
10705,3925
10689,3895
10672,3866
10655,3838
10636,3812
10617,3786
10597,3762
10576,3739
10556,3718
10534,3699
10513,3681
10491,3665
10469,3650
10447,3637
10425,3626
10403,3615
10381,3607
10359,3601
10337,3595
10314,3591
10293,3589
10271,3589
10249,3589
10228,3591
10206,3595
10184,3601
10162,3607
10140,3615
10118,3626
10096,3637
10074,3650
10052,3665
10030,3681
10009,3699
9987,3718
9967,3739
9946,3762
9926,3786
9907,3812
9888,3838
9870,3866
9854,3895
9838,3925
9823,3955
9809,3988
9797,4020
9785,4053
9775,4088
9765,4121
9758,4157
9751,4192
9745,4227
9741,4264
9738,4301
9736,4338
9736,4375
9736,4408
9738,4441
9740,4476
9743,4511
9748,4548
9754,4584
9760,4623
9769,4663
9778,4705
9788,4749
9800,4795
9814,4844
9828,4894
9844,4946
9862,5002
9880,5060
9900,5120
9921,5182
9944,5246
9967,5311
9991,5378
10016,5446
10041,5514
10067,5582
10091,5648
10116,5712
10139,5774
10161,5832
10182,5884
10201,5932
10217,5974
10232,6010
10243,6039
10253,6064
10260,6081
10265,6094
10268,6101
10269,6106
10270,6108
" style="stroke:#ff0000;stroke-width:0;
stroke-linejoin:bevel; stroke-linecap:butt;
fill:#d8d8ff;
"/>
<!-- Line -->
<polyline points="5123,904
5121,903
5117,902
5109,898
5097,893
5079,886
5056,876
5026,862
4991,848
4950,830
4902,809
4850,786
4794,761
4733,734
4671,706
4606,677
4541,647
4475,617
4409,586
4345,556
4282,527
4221,497
4161,468
4106,439
4051,412
4000,385
3951,360
3905,334
3862,309
3821,285
3782,262
3746,239
3712,216
3679,193
3649,171
3620,149
3593,127
3567,103
3543,81
3520,58
3492,31
3468,4
3444,-24
3421,-52
3400,-81
3380,-112
3361,-141
3343,-173
3327,-203
3311,-236
3297,-267
3285,-300
3273,-332
3262,-364
3254,-396
3247,-429
3241,-460
3236,-492
3234,-523
3232,-554
3232,-583
3233,-613
3236,-640
3239,-667
3245,-693
3251,-718
3259,-742
3268,-765
3277,-786
3288,-806
3300,-826
3313,-844
3327,-860
3341,-876
3357,-891
3374,-904
3392,-917
3412,-929
3432,-940
3453,-950
3476,-958
3499,-965
3524,-972
3550,-977
3577,-981
3605,-983
3634,-985
3664,-984
3694,-983
3725,-980
3757,-976
3788,-970
3821,-963
3854,-954
3885,-944
3918,-933
3950,-920
3982,-906
4014,-891
4045,-874
4076,-856
4106,-837
4136,-816
4165,-795
4194,-772
4222,-749
4249,-724
4277,-698
4300,-674
4322,-649
4345,-623
4367,-596
4389,-567
4411,-537
4434,-504
4457,-471
4480,-434
4503,-395
4528,-354
4553,-311
4578,-265
4603,-217
4630,-165
4658,-112
4686,-55
4716,3
4745,64
4774,127
4805,192
4835,257
4866,323
4895,388
4924,453
4953,516
4979,576
5004,632
5027,684
5048,731
5066,772
5081,808
5095,837
5104,860
5111,878
5117,891
5121,898
5122,902
5123,904
" style="stroke:#ff0000;stroke-width:0;
stroke-linejoin:bevel; stroke-linecap:butt;
fill:#d8d8ff;
"/>
<!-- Line -->
<polyline points="5120,904
5119,907
5118,911
5113,918
5108,931
5101,949
5091,972
5078,1001
5063,1037
5045,1078
5024,1125
5001,1177
4976,1233
4950,1294
4921,1356
4892,1421
4862,1486
4832,1552
4802,1618
4771,1682
4742,1745
4712,1806
4683,1866
4655,1922
4627,1976
4601,2028
4575,2076
4550,2122
4524,2165
4500,2206
4477,2245
4454,2281
4431,2316
4409,2348
4386,2379
4364,2407
4342,2434
4319,2460
4297,2485
4274,2509
4246,2535
4219,2559
4191,2583
4162,2606
4133,2627
4103,2647
4073,2666
4043,2684
4011,2701
3980,2717
3947,2730
3916,2743
3883,2754
3850,2765
3818,2773
3786,2781
3754,2786
3722,2791
3692,2793
3661,2795
3631,2795
3603,2794
3574,2791
3548,2788
3522,2783
3497,2776
3474,2768
3450,2760
3429,2750
3408,2740
3390,2727
3372,2714
3355,2701
3339,2686
3324,2670
3311,2654
3297,2636
3286,2616
3275,2596
3266,2575
3256,2552
3249,2529
3243,2503
3237,2477
3234,2450
3231,2423
3230,2393
3230,2364
3232,2333
3234,2302
3239,2270
3245,2239
3252,2206
3260,2174
3271,2142
3282,2110
3295,2077
3309,2046
3324,2013
3341,1983
3359,1951
3378,1922
3398,1891
3419,1862
3442,1834
3465,1805
3490,1778
3517,1751
3541,1728
3565,1706
3591,1682
3618,1660
3647,1638
3677,1616
3710,1593
3743,1570
3780,1547
3819,1524
3860,1500
3903,1475
3949,1449
3997,1424
4049,1397
4102,1370
4159,1341
4218,1312
4279,1282
4342,1253
4407,1223
4472,1192
4538,1162
4603,1132
4668,1103
4731,1075
4791,1048
4847,1023
4899,1000
4946,979
4987,961
5023,946
5053,933
5076,923
5093,916
5106,911
5113,907
5118,906
5120,904
" style="stroke:#ff0000;stroke-width:0;
stroke-linejoin:bevel; stroke-linecap:butt;
fill:#d8d8ff;
"/>
<!-- Line -->
<polyline points="5122,901
5123,903
5124,908
5128,915
5133,928
5141,945
5150,969
5164,998
5179,1034
5196,1075
5217,1122
5240,1174
5266,1230
5292,1291
5320,1353
5350,1418
5379,1483
5409,1549
5440,1615
5470,1679
5500,1742
5529,1804
5559,1863
5587,1919
5614,1973
5641,2025
5667,2073
5692,2119
5717,2162
5741,2203
5764,2242
5787,2278
5811,2312
5834,2345
5856,2375
5878,2404
5900,2431
5923,2457
5945,2481
5968,2506
5995,2532
6023,2557
6051,2580
6079,2603
6109,2624
6139,2645
6169,2664
6200,2682
6230,2699
6263,2713
6295,2728
6327,2741
6360,2752
6391,2762
6424,2770
6456,2777
6488,2784
6519,2788
6551,2791
6581,2792
6611,2792
6640,2791
6667,2789
6695,2785
6721,2780
6745,2773
6769,2766
6792,2758
6813,2748
6833,2737
6853,2725
6871,2712
6888,2699
6903,2684
6918,2668
6932,2650
6944,2633
6956,2614
6967,2594
6977,2572
6985,2550
6993,2525
6999,2500
7004,2475
7008,2448
7011,2419
7013,2391
7012,2362
7011,2331
7007,2300
7003,2268
6997,2236
6991,2204
6981,2172
6972,2139
6960,2107
6948,2074
6933,2043
6918,2011
6901,1980
6883,1949
6865,1919
6844,1889
6823,1860
6800,1830
6776,1803
6751,1775
6725,1748
6701,1725
6677,1702
6650,1680
6623,1657
6595,1635
6564,1613
6532,1590
6498,1567
6461,1544
6423,1521
6382,1497
6339,1472
6292,1446
6244,1421
6193,1394
6139,1366
6082,1338
6024,1309
5963,1279
5900,1250
5835,1219
5770,1189
5703,1159
5638,1129
5573,1100
5510,1071
5450,1045
5395,1020
5342,997
5295,976
5254,958
5218,943
5189,930
5166,920
5148,913
5135,908
5128,903
5124,902
5122,901
" style="stroke:#ff0000;stroke-width:0;
stroke-linejoin:bevel; stroke-linecap:butt;
fill:#d8d8ff;
"/>
<!-- Line -->
<polyline points="5123,901
5125,900
5129,899
5137,895
5149,890
5167,882
5190,873
5219,860
5255,845
5296,827
5343,806
5396,783
5451,759
5512,731
5574,703
5639,675
5704,644
5771,614
5837,583
5901,554
5964,523
6025,494
6085,466
6140,437
6195,409
6246,383
6295,356
6341,331
6384,307
6425,283
6464,259
6499,236
6534,214
6566,191
6597,169
6625,146
6653,123
6679,101
6703,78
6727,56
6753,29
6777,1
6802,-26
6825,-55
6846,-83
6866,-114
6885,-143
6902,-175
6919,-206
6935,-238
6949,-269
6961,-302
6973,-334
6983,-366
6992,-398
6999,-431
7004,-462
7009,-494
7012,-525
7014,-556
7014,-585
7013,-615
7009,-642
7006,-669
7001,-696
6995,-721
6986,-744
6978,-767
6969,-788
6958,-808
6945,-828
6933,-846
6919,-862
6904,-878
6889,-893
6872,-907
6854,-919
6834,-932
6814,-942
6793,-952
6770,-960
6747,-969
6722,-975
6696,-980
6668,-983
6641,-986
6612,-987
6582,-987
6552,-985
6520,-983
6489,-978
6457,-973
6425,-965
6392,-957
6361,-946
6328,-935
6296,-922
6264,-909
6232,-893
6201,-876
6170,-858
6140,-839
6110,-819
6080,-798
6052,-775
6024,-752
5996,-727
5969,-701
5946,-677
5924,-653
5901,-626
5879,-599
5857,-571
5835,-540
5812,-508
5788,-474
5765,-437
5742,-398
5718,-358
5693,-314
5668,-268
5643,-220
5615,-169
5588,-115
5560,-58
5530,0
5501,60
5471,123
5441,188
5411,254
5380,320
5351,385
5321,450
5293,513
5267,573
5241,628
5218,681
5197,728
5180,769
5165,805
5151,834
5142,857
5134,875
5129,888
5125,895
5124,899
5123,901
" style="stroke:#ff0000;stroke-width:0;
stroke-linejoin:bevel; stroke-linecap:butt;
fill:#d8d8ff;
"/>
<!-- Line -->
<polyline points="10262,915
10260,914
10256,913
10248,909
10236,903
10218,896
10195,887
10165,873
10130,858
10089,840
10041,819
9989,796
9933,771
9872,745
9811,717
9745,687
9680,658
9614,627
9548,597
9484,566
9421,537
9360,508
9300,478
9245,450
9190,423
9139,395
9090,370
9044,345
9001,320
8960,296
8921,272
8886,249
8851,226
8818,203
8788,181
8760,159
8732,137
8706,114
8682,92
8659,69
8632,41
8607,14
8583,-13
8560,-41
8539,-71
8519,-101
8500,-131
8482,-162
8466,-193
8450,-225
8436,-257
8424,-289
8412,-322
8402,-353
8393,-386
8386,-418
8381,-450
8375,-481
8373,-513
8371,-543
8371,-573
8372,-602
8375,-629
8379,-657
8384,-683
8390,-707
8398,-731
8407,-754
8416,-775
8427,-795
8439,-815
8452,-833
8466,-850
8480,-866
8496,-880
8513,-894
8531,-907
8551,-918
8571,-930
8592,-939
8615,-948
8638,-955
8663,-961
8689,-966
8717,-971
8744,-973
8773,-975
8803,-974
8833,-973
8865,-970
8896,-965
8928,-959
8960,-953
8993,-943
9024,-934
9057,-922
9089,-910
9121,-895
9153,-880
9184,-864
9215,-846
9245,-827
9275,-806
9304,-785
9333,-762
9361,-739
9388,-713
9416,-687
9439,-663
9461,-639
9484,-613
9506,-585
9528,-557
9550,-527
9573,-494
9596,-460
9619,-424
9643,-385
9667,-344
9692,-301
9717,-255
9742,-206
9770,-155
9797,-101
9825,-45
9855,13
9884,74
9913,137
9944,202
9974,267
10005,333
10034,398
10064,464
10092,527
10118,586
10143,642
10166,695
10187,742
10205,783
10220,818
10234,848
10243,871
10250,889
10256,901
10260,909
10261,913
10262,915
" style="stroke:#ff0000;stroke-width:0;
stroke-linejoin:bevel; stroke-linecap:butt;
fill:#d8d8ff;
"/>
<!-- Line -->
<polyline points="10259,915
10258,917
10257,921
10253,929
10247,941
10240,959
10230,982
10217,1012
10202,1047
10184,1088
10163,1135
10140,1188
10115,1244
10089,1304
10060,1366
10031,1432
10002,1497
9971,1563
9941,1629
9910,1693
9881,1756
9851,1817
9822,1877
9794,1932
9766,1987
9740,2038
9714,2087
9689,2133
9664,2176
9639,2217
9616,2256
9593,2291
9570,2326
9548,2359
9525,2389
9503,2417
9481,2445
9458,2471
9436,2495
9413,2519
9385,2545
9358,2570
9330,2594
9301,2617
9272,2638
9243,2658
9212,2677
9182,2695
9150,2711
9119,2727
9086,2741
9055,2753
9022,2765
8990,2775
8957,2784
8925,2791
8893,2796
8861,2802
8831,2804
8801,2806
8770,2806
8742,2805
8713,2802
8687,2798
8661,2793
8636,2787
8613,2779
8590,2770
8569,2761
8548,2750
8529,2738
8511,2725
8494,2711
8478,2697
8464,2681
8450,2664
8436,2646
8425,2626
8414,2606
8405,2585
8395,2562
8388,2539
8382,2514
8376,2488
8373,2460
8370,2433
8369,2404
8369,2374
8371,2344
8373,2312
8379,2281
8384,2249
8391,2217
8400,2184
8410,2153
8422,2120
8434,2088
8448,2056
8464,2024
8480,1993
8498,1962
8517,1932
8537,1902
8558,1872
8581,1844
8604,1816
8629,1788
8656,1761
8680,1738
8704,1716
8730,1693
8758,1671
8786,1649
8816,1627
8849,1604
8882,1581
8919,1558
8958,1534
8999,1510
9042,1485
9088,1460
9137,1435
9188,1407
9241,1380
9298,1352
9357,1322
9418,1293
9481,1264
9546,1233
9611,1203
9677,1172
9742,1143
9807,1113
9870,1085
9930,1059
9986,1034
10038,1011
10086,990
10127,972
10162,957
10192,943
10215,934
10233,927
10245,921
10253,917
10257,916
10259,915
" style="stroke:#ff0000;stroke-width:0;
stroke-linejoin:bevel; stroke-linecap:butt;
fill:#d8d8ff;
"/>
<!-- Line -->
<polyline points="10261,912
10262,914
10263,918
10267,925
10272,938
10280,956
10289,979
10303,1008
10318,1044
10335,1085
10356,1132
10380,1185
10405,1240
10431,1301
10459,1363
10489,1428
10518,1493
10549,1560
10579,1626
10609,1690
10639,1753
10668,1815
10698,1874
10726,1929
10753,1984
10781,2035
10806,2083
10831,2130
10856,2173
10880,2214
10903,2253
10927,2288
10950,2323
10973,2355
10995,2386
11017,2414
11039,2441
11062,2468
11084,2492
11107,2516
11134,2542
11162,2567
11190,2591
11218,2614
11248,2635
11278,2656
11308,2675
11339,2692
11370,2709
11402,2724
11434,2739
11466,2751
11499,2763
11530,2772
11563,2781
11595,2788
11627,2794
11658,2798
11690,2802
11720,2803
11750,2803
11779,2802
11806,2800
11834,2795
11860,2790
11884,2784
11908,2776
11931,2768
11952,2759
11972,2747
11992,2735
12010,2723
12027,2709
12043,2695
12057,2679
12071,2661
12083,2643
12095,2624
12107,2604
12116,2582
12124,2560
12132,2536
12138,2511
12143,2486
12148,2458
12150,2430
12152,2402
12151,2372
12150,2342
12146,2310
12142,2279
12136,2246
12130,2215
12120,2182
12111,2150
12099,2117
12087,2085
12072,2053
12057,2022
12040,1990
12023,1960
12004,1929
11983,1900
11962,1870
11939,1841
11916,1814
11890,1785
11864,1758
11840,1736
11816,1713
11790,1691
11762,1668
11734,1646
11703,1624
11671,1601
11637,1577
11601,1554
11562,1531
11521,1507
11478,1483
11432,1457
11383,1432
11332,1404
11278,1377
11222,1349
11163,1319
11102,1290
11039,1260
10974,1230
10909,1200
10843,1169
10777,1140
10712,1110
10649,1082
10590,1056
10534,1030
10481,1007
10434,986
10393,969
10358,954
10328,940
10305,931
10287,923
10275,918
10267,914
10263,913
10261,912
" style="stroke:#ff0000;stroke-width:0;
stroke-linejoin:bevel; stroke-linecap:butt;
fill:#d8d8ff;
"/>
<!-- Line -->
<polyline points="10262,912
10264,911
10268,910
10276,906
10288,900
10306,893
10329,883
10359,871
10394,855
10435,837
10482,816
10535,793
10591,769
10651,742
10713,713
10779,685
10844,655
10910,624
10976,594
11040,564
11103,534
11164,504
11224,476
11279,448
11334,419
11385,393
11434,367
11480,342
11523,318
11564,293
11603,269
11638,246
11673,224
11706,201
11736,179
11764,157
11792,134
11818,112
11842,89
11866,67
11892,39
11917,11
11941,-15
11964,-45
11985,-73
12005,-103
12024,-133
12041,-164
12058,-196
12074,-227
12088,-259
12100,-291
12112,-324
12122,-355
12131,-388
12138,-420
12143,-452
12149,-483
12151,-515
12153,-545
12153,-575
12152,-604
12149,-632
12145,-659
12140,-685
12134,-710
12125,-733
12117,-756
12108,-777
12097,-797
12085,-817
12072,-835
12058,-852
12044,-868
12028,-882
12011,-896
11993,-909
11973,-921
11953,-932
11932,-941
11909,-950
11886,-958
11861,-964
11835,-970
11807,-973
11780,-976
11751,-977
11721,-977
11691,-975
11659,-973
11628,-967
11596,-962
11564,-955
11531,-946
11500,-936
11467,-924
11435,-912
11403,-898
11371,-882
11340,-866
11309,-848
11279,-829
11249,-809
11219,-788
11191,-765
11163,-742
11135,-717
11108,-690
11085,-666
11063,-642
11040,-616
11018,-588
10996,-560
10974,-530
10951,-497
10928,-464
10904,-427
10881,-388
10857,-347
10832,-304
10807,-258
10782,-209
10754,-158
10727,-104
10699,-48
10669,10
10640,71
10611,134
10580,199
10550,264
10519,330
10490,395
10460,460
10432,523
10406,583
10381,639
10358,691
10337,739
10319,780
10304,815
10290,845
10281,868
10274,886
10268,898
10264,906
10263,910
10262,912
" style="stroke:#ff0000;stroke-width:0;
stroke-linejoin:bevel; stroke-linecap:butt;
fill:#d8d8ff;
"/>
<!-- Line -->
<polyline points="10280,6109
10278,6108
10274,6107
10266,6102
10254,6097
10236,6090
10213,6080
10183,6067
10148,6052
10107,6034
10059,6013
10007,5990
9951,5965
9890,5939
9828,5910
9763,5881
9698,5851
9632,5821
9566,5791
9502,5760
9439,5731
9378,5701
9318,5672
9262,5644
9208,5616
9156,5589
9108,5564
9062,5539
9019,5513
8978,5489
8939,5466
8903,5443
8869,5420
8836,5397
8806,5375
8777,5353
8750,5331
8724,5308
8700,5286
8677,5262
8649,5235
8625,5208
8601,5180
8578,5151
8557,5122
8537,5091
8518,5062
8500,5030
8483,5000
8468,4967
8454,4936
8441,4903
8430,4871
8419,4839
8411,4807
8404,4774
8398,4743
8393,4711
8391,4680
8389,4649
8389,4620
8390,4591
8393,4563
8396,4536
8402,4510
8408,4485
8416,4461
8425,4438
8434,4417
8445,4397
8457,4377
8470,4360
8483,4343
8498,4327
8514,4312
8531,4299
8549,4286
8569,4274
8588,4263
8609,4254
8633,4245
8656,4237
8681,4230
8707,4225
8734,4222
8762,4219
8791,4218
8820,4218
8851,4220
8882,4222
8914,4227
8945,4233
8978,4240
9011,4248
9042,4259
9075,4270
9107,4283
9139,4297
9171,4312
9202,4329
9233,4347
9262,4366
9293,4386
9322,4407
9351,4430
9379,4454
9406,4478
9434,4506
9457,4529
9479,4553
9502,4579
9524,4606
9546,4635
9568,4665
9591,4698
9614,4732
9637,4768
9660,4807
9685,4848
9710,4891
9735,4937
9760,4985
9787,5037
9815,5091
9843,5147
9872,5207
9902,5268
9931,5331
9962,5395
9992,5461
10023,5527
10052,5592
10081,5657
10110,5719
10136,5780
10161,5836
10184,5888
10205,5935
10223,5976
10238,6012
10251,6041
10261,6065
10268,6082
10274,6095
10278,6102
10279,6107
10280,6109
" style="stroke:#0000ff;stroke-width:0;
stroke-linejoin:bevel; stroke-linecap:butt;
fill:#ffd8d8;
"/>
<!-- Line -->
<polyline points="10277,6109
10276,6111
10275,6115
10270,6122
10265,6135
10258,6153
10248,6176
10235,6205
10220,6241
10202,6282
10181,6329
10158,6382
10133,6437
10107,6498
10078,6560
10049,6625
10019,6690
9989,6756
9959,6823
9928,6887
9899,6950
9869,7011
9840,7070
9812,7126
9784,7181
9758,7232
9732,7280
9707,7327
9681,7370
9657,7411
9634,7449
9611,7485
9588,7520
9566,7552
9543,7583
9521,7611
9499,7638
9476,7665
9454,7689
9430,7713
9403,7739
9376,7763
9348,7787
9319,7811
9290,7832
9260,7851
9230,7870
9200,7888
9168,7905
9137,7921
9104,7934
9072,7947
9040,7959
9007,7969
8975,7977
8942,7985
8911,7990
8879,7995
8849,7997
8818,8000
8788,8000
8760,7998
8731,7995
8704,7992
8679,7987
8654,7981
8629,7972
8607,7964
8586,7954
8565,7944
8546,7931
8529,7919
8512,7905
8496,7890
8481,7875
8467,7858
8454,7840
8443,7820
8432,7800
8422,7779
8413,7756
8406,7733
8400,7708
8394,7681
8390,7654
8388,7627
8387,7597
8387,7568
8388,7538
8391,7506
8395,7475
8402,7443
8408,7411
8417,7378
8427,7346
8438,7314
8451,7281
8466,7250
8480,7217
8497,7187
8515,7155
8534,7126
8554,7096
8576,7066
8598,7038
8622,7009
8647,6982
8674,6955
8697,6932
8721,6910
8747,6887
8774,6865
8803,6843
8833,6820
8866,6797
8900,6774
8936,6751
8975,6728
9016,6704
9059,6679
9105,6654
9153,6628
9205,6601
9259,6574
9315,6545
9375,6516
9436,6487
9499,6457
9563,6427
9629,6396
9695,6366
9760,6337
9825,6307
9887,6279
9948,6253
10004,6227
10056,6204
10103,6183
10144,6165
10180,6151
10209,6137
10233,6128
10250,6120
10263,6115
10270,6111
10275,6110
10277,6109
" style="stroke:#0000ff;stroke-width:0;
stroke-linejoin:bevel; stroke-linecap:butt;
fill:#ffd8d8;
"/>
<!-- Line -->
<polyline points="10278,6106
10279,6108
10280,6112
10284,6119
10289,6132
10297,6150
10306,6173
10320,6202
10334,6238
10352,6279
10373,6326
10396,6379
10422,6434
10448,6495
10476,6557
10506,6622
10535,6687
10565,6753
10596,6819
10626,6883
10656,6946
10685,7007
10714,7067
10743,7123
10770,7177
10797,7229
10823,7277
10849,7323
10873,7366
10897,7407
10920,7446
10943,7482
10966,7517
10990,7549
11012,7580
11034,7608
11057,7635
11079,7661
11102,7686
11124,7710
11151,7736
11180,7760
11207,7784
11236,7807
11266,7828
11295,7848
11325,7867
11356,7885
11387,7902
11419,7918
11450,7931
11483,7944
11516,7955
11548,7966
11581,7974
11612,7982
11645,7987
11676,7992
11708,7994
11738,7996
11767,7996
11796,7995
11824,7992
11851,7989
11877,7984
11902,7977
11926,7969
11948,7961
11970,7951
11990,7941
12009,7928
12027,7916
12045,7902
12060,7887
12075,7871
12089,7855
12101,7837
12113,7817
12124,7797
12134,7776
12142,7753
12150,7730
12156,7704
12161,7678
12165,7651
12167,7624
12169,7594
12169,7565
12167,7534
12164,7503
12160,7471
12154,7440
12146,7407
12138,7375
12129,7343
12117,7311
12104,7278
12090,7247
12075,7214
12058,7184
12040,7152
12022,7123
12001,7092
11980,7063
11956,7035
11933,7006
11908,6979
11882,6952
11858,6929
11834,6907
11807,6883
11780,6861
11752,6839
11721,6817
11689,6794
11654,6771
11618,6748
11580,6725
11539,6701
11496,6676
11449,6650
11401,6625
11350,6598
11295,6571
11239,6542
11181,6513
11119,6483
11056,6454
10992,6424
10925,6393
10859,6363
10794,6333
10729,6304
10667,6276
10606,6249
10551,6224
10498,6201
10451,6180
10410,6162
10374,6148
10345,6134
10322,6124
10304,6117
10291,6112
10284,6108
10280,6107
10278,6106
" style="stroke:#0000ff;stroke-width:0;
stroke-linejoin:bevel; stroke-linecap:butt;
fill:#ffd8d8;
"/>
<!-- Line -->
<polyline points="10280,6106
10282,6104
10286,6103
10293,6099
10306,6094
10324,6087
10347,6077
10376,6064
10412,6049
10453,6031
10500,6010
10553,5987
10608,5962
10669,5935
10731,5907
10796,5878
10861,5848
10928,5818
10994,5787
11058,5757
11121,5728
11182,5698
11241,5669
11297,5640
11352,5613
11403,5587
11451,5561
11498,5535
11541,5510
11582,5486
11620,5463
11656,5440
11691,5417
11723,5395
11754,5372
11782,5350
11809,5328
11836,5304
11860,5282
11883,5259
11909,5232
11934,5205
11959,5176
11981,5148
12003,5119
12023,5089
12041,5059
12059,5028
12076,4997
12091,4965
12106,4933
12118,4901
12130,4869
12139,4836
12149,4804
12155,4771
12161,4740
12165,4708
12169,4678
12170,4647
12170,4617
12169,4588
12166,4560
12162,4533
12157,4508
12151,4482
12143,4458
12135,4436
12124,4415
12114,4394
12102,4375
12090,4358
12075,4341
12060,4325
12045,4310
12028,4296
12010,4283
11991,4271
11970,4261
11949,4250
11927,4242
11903,4235
11878,4228
11853,4223
11825,4219
11797,4217
11769,4216
11738,4216
11708,4217
11677,4220
11646,4224
11614,4230
11582,4237
11549,4246
11517,4256
11484,4267
11453,4280
11420,4295
11388,4309
11357,4326
11327,4344
11296,4363
11267,4383
11237,4405
11209,4427
11181,4451
11153,4476
11126,4502
11103,4525
11081,4550
11058,4576
11036,4603
11014,4632
10991,4662
10969,4695
10945,4729
10922,4765
10899,4804
10875,4845
10850,4888
10825,4934
10798,4982
10772,5034
10745,5088
10717,5144
10687,5204
10658,5265
10628,5328
10598,5392
10567,5458
10537,5524
10508,5589
10478,5654
10450,5716
10424,5777
10398,5833
10375,5885
10354,5932
10337,5973
10322,6009
10308,6038
10299,6061
10291,6079
10286,6092
10282,6099
10281,6103
10280,6106
" style="stroke:#0000ff;stroke-width:0;
stroke-linejoin:bevel; stroke-linecap:butt;
fill:#ffd8d8;
"/>
<!-- Line -->
<polyline points="5135,6097
5133,6096
5129,6095
5122,6091
5109,6086
5091,6078
5068,6069
5039,6055
5003,6040
4962,6023
4915,6002
4862,5979
4807,5953
4746,5927
4684,5899
4619,5869
4554,5840
4488,5809
4422,5779
4358,5749
4295,5719
4234,5690
4174,5660
4118,5632
4064,5605
4012,5577
3964,5552
3918,5527
3875,5502
3834,5478
3795,5455
3759,5432
3724,5408
3692,5385
3661,5363
3633,5341
3606,5319
3580,5296
3555,5274
3532,5251
3505,5224
3481,5196
3457,5168
3434,5140
3413,5110
3393,5080
3374,5050
3356,5019
3339,4988
3323,4956
3310,4924
3297,4892
3286,4859
3275,4828
3267,4795
3259,4763
3254,4731
3249,4700
3247,4668
3245,4638
3245,4608
3246,4579
3249,4552
3252,4524
3257,4498
3264,4473
3272,4450
3280,4427
3290,4406
3300,4386
3313,4366
3325,4348
3339,4331
3354,4316
3370,4301
3386,4287
3404,4275
3424,4262
3444,4251
3465,4242
3488,4234
3511,4225
3537,4219
3563,4214
3590,4211
3617,4207
3647,4206
3676,4206
3707,4208
3738,4211
3770,4216
3801,4221
3834,4228
3866,4237
3898,4247
3930,4259
3963,4271
3994,4285
4027,4301
4057,4318
4089,4335
4118,4354
4149,4374
4178,4395
4206,4418
4235,4443
4262,4467
4289,4494
4312,4517
4334,4541
4358,4567
4380,4595
4402,4623
4424,4654
4447,4686
4470,4721
4493,4756
4516,4795
4540,4836
4565,4879
4591,4925
4616,4974
4643,5025
4670,5080
4699,5135
4728,5195
4758,5256
4787,5319
4817,5383
4848,5449
4878,5516
4908,5581
4937,5646
4965,5708
4992,5769
5017,5824
5040,5877
5061,5924
5079,5965
5093,6001
5107,6030
5117,6053
5124,6071
5129,6083
5133,6091
5134,6095
5135,6097
" style="stroke:#0000ff;stroke-width:0;
stroke-linejoin:bevel; stroke-linecap:butt;
fill:#ffd8d8;
"/>
<!-- Line -->
<polyline points="5132,6097
5131,6099
5130,6103
5126,6111
5121,6123
5113,6141
5104,6164
5090,6194
5076,6229
5058,6270
5037,6318
5014,6370
4988,6426
4962,6487
4934,6549
4904,6614
4875,6679
4845,6745
4814,6811
4784,6875
4754,6938
4725,6999
4696,7059
4667,7114
4640,7169
4614,7220
4587,7269
4562,7315
4537,7358
4513,7399
4490,7438
4467,7474
4444,7508
4422,7541
4398,7571
4376,7600
4354,7627
4331,7653
4309,7677
4286,7701
4259,7728
4232,7752
4203,7776
4175,7799
4145,7820
4116,7840
4086,7859
4055,7877
4024,7893
3992,7909
3960,7923
3928,7935
3896,7947
3863,7958
3830,7966
3798,7973
3766,7979
3735,7984
3704,7986
3674,7988
3644,7988
3615,7987
3587,7984
3560,7981
3534,7975
3509,7969
3485,7961
3463,7952
3442,7943
3421,7932
3402,7920
3384,7907
3367,7893
3352,7879
3337,7863
3322,7846
3310,7828
3298,7808
3288,7788
3277,7767
3269,7744
3261,7721
3255,7696
3250,7670
3246,7643
3244,7615
3243,7586
3243,7556
3244,7526
3247,7495
3251,7463
3257,7432
3264,7399
3273,7366
3282,7335
3294,7302
3307,7270
3321,7238
3336,7206
3353,7175
3371,7144
3390,7114
3409,7084
3432,7055
3454,7026
3478,6998
3503,6971
3529,6943
3552,6920
3576,6898
3603,6875
3630,6853
3658,6831
3689,6809
3721,6786
3756,6763
3792,6740
3830,6717
3871,6692
3914,6667
3961,6642
4009,6617
4060,6590
4115,6562
4171,6534
4230,6504
4291,6475
4354,6446
4418,6415
4485,6385
4551,6354
4616,6325
4681,6296
4743,6267
4804,6241
4859,6216
4912,6193
4959,6172
5000,6154
5036,6139
5065,6125
5088,6116
5106,6109
5119,6103
5126,6099
5130,6098
5132,6097
" style="stroke:#0000ff;stroke-width:0;
stroke-linejoin:bevel; stroke-linecap:butt;
fill:#ffd8d8;
"/>
<!-- Line -->
<polyline points="5133,6094
5134,6096
5135,6100
5140,6108
5145,6120
5152,6138
5162,6161
5175,6191
5190,6226
5208,6267
5229,6314
5252,6367
5277,6423
5303,6483
5332,6545
5361,6611
5391,6676
5421,6742
5451,6808
5482,6872
5511,6935
5541,6996
5570,7056
5598,7111
5626,7166
5653,7217
5678,7266
5704,7312
5729,7355
5753,7396
5776,7435
5799,7470
5822,7505
5845,7538
5867,7568
5889,7596
5912,7624
5934,7650
5958,7674
5980,7698
6007,7724
6035,7749
6062,7773
6092,7796
6121,7817
6151,7837
6181,7856
6212,7874
6243,7890
6275,7906
6306,7920
6339,7932
6371,7944
6404,7954
6436,7963
6468,7970
6500,7975
6532,7981
6563,7983
6594,7985
6623,7985
6651,7984
6680,7981
6707,7977
6732,7972
6758,7966
6782,7958
6804,7949
6826,7940
6846,7929
6865,7917
6882,7904
6900,7890
6916,7876
6931,7860
6944,7843
6957,7825
6969,7805
6980,7785
6990,7764
6998,7741
7005,7718
7012,7693
7017,7667
7021,7639
7023,7612
7024,7583
7024,7553
7023,7523
7020,7491
7016,7460
7009,7428
7002,7396
6994,7363
6984,7332
6973,7299
6960,7267
6945,7235
6931,7203
6914,7172
6896,7141
6877,7111
6856,7081
6835,7051
6812,7023
6789,6995
6764,6967
6738,6940
6713,6917
6689,6895
6663,6872
6636,6850
6607,6828
6577,6806
6544,6783
6510,6760
6474,6737
6435,6713
6394,6689
6351,6664
6305,6639
6257,6614
6205,6586
6151,6559
6095,6531
6036,6501
5974,6472
5911,6443
5847,6412
5781,6382
5715,6351
5650,6322
5585,6292
5523,6264
5462,6238
5406,6213
5354,6190
5307,6169
5266,6151
5230,6136
5201,6122
5177,6113
5160,6106
5147,6100
5140,6096
5135,6095
5133,6094
" style="stroke:#0000ff;stroke-width:0;
stroke-linejoin:bevel; stroke-linecap:butt;
fill:#ffd8d8;
"/>
<!-- Line -->
<polyline points="5135,6094
5138,6093
5142,6092
5149,6088
5162,6082
5180,6075
5203,6066
5232,6052
5268,6037
5309,6019
5356,5998
5408,5975
5464,5950
5525,5924
5587,5896
5652,5866
5717,5837
5783,5806
5849,5776
5913,5745
5976,5716
6037,5687
6097,5657
6153,5629
6207,5602
6259,5575
6307,5549
6353,5524
6396,5499
6437,5475
6476,5451
6512,5428
6546,5405
6579,5383
6609,5360
6638,5338
6665,5316
6691,5293
6716,5271
6739,5248
6765,5220
6790,5193
6814,5165
6836,5137
6858,5107
6878,5078
6897,5047
6915,5017
6932,4985
6946,4954
6961,4921
6974,4890
6985,4857
6995,4825
7004,4792
7011,4760
7017,4728
7021,4697
7024,4666
7025,4636
7025,4605
7024,4577
7022,4549
7018,4521
7013,4496
7006,4471
6999,4447
6991,4425
6980,4404
6970,4383
6958,4364
6945,4346
6931,4329
6916,4313
6900,4299
6883,4284
6866,4271
6847,4260
6826,4249
6805,4239
6783,4230
6759,4223
6733,4217
6708,4212
6681,4207
6653,4205
6624,4204
6594,4204
6563,4205
6533,4208
6501,4213
6470,4219
6437,4225
6405,4235
6372,4244
6340,4256
6308,4268
6276,4283
6244,4298
6213,4314
6182,4332
6152,4351
6122,4371
6093,4393
6065,4415
6036,4439
6009,4465
5982,4491
5959,4514
5937,4538
5913,4564
5891,4592
5869,4620
5846,4650
5824,4683
5801,4718
5778,4753
5755,4792
5731,4833
5706,4876
5680,4922
5654,4971
5628,5022
5601,5077
5572,5132
5543,5192
5513,5253
5484,5316
5454,5380
5423,5446
5393,5512
5363,5577
5334,5643
5306,5704
5279,5765
5254,5821
5231,5874
5210,5921
5192,5962
5177,5997
5164,6027
5154,6050
5147,6068
5142,6080
5138,6088
5137,6092
5135,6094
" style="stroke:#0000ff;stroke-width:0;
stroke-linejoin:bevel; stroke-linecap:butt;
fill:#ffd8d8;
"/>
<!-- Line -->
<polyline points="5126,907
5124,908
5120,909
5112,912
5100,917
5082,924
5058,934
5028,945
4993,960
4951,976
4902,995
4850,1016
4792,1038
4730,1061
4666,1086
4600,1111
4533,1137
4465,1162
4396,1186
4329,1210
4264,1234
4200,1256
4138,1277
4078,1297
4020,1316
3965,1334
3912,1350
3862,1364
3814,1377
3767,1390
3723,1400
3681,1409
3641,1417
3603,1424
3566,1429
3529,1435
3495,1438
3460,1440
3426,1442
3394,1442
3356,1441
3319,1440
3282,1437
3246,1433
3210,1426
3175,1420
3140,1412
3106,1403
3071,1393
3039,1381
3006,1369
2974,1355
2943,1340
2913,1324
2885,1308
2856,1290
2830,1271
2805,1252
2781,1232
2758,1211
2737,1191
2718,1169
2700,1148
2683,1126
2668,1104
2656,1082
2644,1060
2634,1038
2625,1016
2619,994
2614,972
2609,950
2607,929
2607,907
2607,885
2609,864
2614,841
2619,819
2625,797
2634,775
2644,753
2656,731
2668,709
2683,687
2700,665
2718,644
2737,622
2758,602
2781,581
2805,561
2830,542
2856,523
2885,506
2913,489
2943,473
2974,458
3006,445
3039,432
3071,420
3106,410
3140,402
3175,393
3210,387
3246,381
3282,376
3319,373
3356,372
3394,371
3426,371
3460,373
3495,375
3529,379
3566,384
3603,389
3641,396
3681,404
3723,413
3767,424
3814,436
3862,449
3912,464
3965,479
4020,497
4078,516
4138,536
4200,557
4264,579
4329,603
4396,627
4465,651
4533,677
4600,702
4666,727
4730,752
4792,775
4850,797
4902,818
4951,837
4993,853
5028,868
5058,879
5082,889
5100,896
5112,901
5120,904
5124,906
5126,907
" style="stroke:#0000ff;stroke-width:0;
stroke-linejoin:bevel; stroke-linecap:butt;
fill:#ffd8d8;
"/>
<!-- Line -->
<polyline points="5130,907
5132,908
5137,909
5144,912
5156,917
5174,924
5198,934
5228,945
5264,960
5306,976
5354,995
5406,1016
5464,1038
5526,1061
5590,1086
5656,1111
5723,1137
5792,1162
5860,1186
5927,1210
5992,1234
6056,1256
6118,1277
6178,1297
6236,1316
6291,1334
6344,1350
6394,1364
6443,1377
6489,1390
6533,1400
6575,1409
6615,1417
6654,1424
6690,1429
6727,1435
6762,1438
6796,1440
6830,1442
6862,1442
6900,1441
6937,1440
6974,1437
7011,1433
7046,1426
7081,1420
7117,1412
7150,1403
7185,1393
7217,1381
7250,1369
7282,1355
7313,1340
7343,1324
7372,1308
7400,1290
7426,1271
7451,1252
7476,1232
7499,1211
7520,1191
7539,1169
7556,1148
7573,1126
7588,1104
7601,1082
7612,1060
7623,1038
7631,1016
7637,994
7643,972
7647,950
7649,929
7649,907
7649,885
7647,864
7643,841
7637,819
7631,797
7623,775
7612,753
7601,731
7588,709
7573,687
7556,665
7539,644
7520,622
7499,602
7476,581
7451,561
7426,542
7400,523
7372,506
7343,489
7313,473
7282,458
7250,445
7217,432
7185,420
7150,410
7117,402
7081,393
7046,387
7011,381
6974,376
6937,373
6900,372
6862,371
6830,371
6796,373
6762,375
6727,379
6690,384
6654,389
6615,396
6575,404
6533,413
6489,424
6443,436
6394,449
6344,464
6291,479
6236,497
6178,516
6118,536
6056,557
5992,579
5927,603
5860,627
5792,651
5723,677
5656,702
5590,727
5526,752
5464,775
5406,797
5354,818
5306,837
5264,853
5228,868
5198,879
5174,889
5156,896
5144,901
5137,904
5132,906
5130,907
" style="stroke:#0000ff;stroke-width:0;
stroke-linejoin:bevel; stroke-linecap:butt;
fill:#ffd8d8;
"/>
<!-- Line -->
<polyline points="5128,909
5127,907
5126,902
5123,895
5118,882
5110,865
5101,840
5089,811
5075,775
5059,733
5040,685
5019,633
4997,575
4974,513
4949,449
4923,383
4898,316
4873,247
4849,179
4825,112
4801,47
4779,-16
4758,-78
4738,-138
4719,-196
4701,-251
4685,-304
4670,-354
4658,-403
4645,-449
4635,-493
4625,-535
4618,-575
4611,-614
4605,-651
4600,-687
4597,-722
4595,-756
4593,-790
4593,-823
4594,-860
4595,-898
4598,-935
4602,-971
4608,-1006
4615,-1042
4623,-1077
4632,-1111
4642,-1145
4654,-1179
4666,-1211
4680,-1243
4695,-1273
4710,-1303
4727,-1333
4745,-1360
4764,-1387
4783,-1413
4803,-1437
4824,-1459
4844,-1480
4866,-1500
4887,-1518
4909,-1534
4931,-1549
4953,-1562
4975,-1573
4997,-1583
5019,-1591
5041,-1598
5063,-1604
5085,-1607
5106,-1609
5128,-1610
5150,-1609
5171,-1607
5193,-1604
5215,-1598
5237,-1591
5259,-1583
5281,-1573
5303,-1562
5325,-1549
5348,-1534
5370,-1518
5391,-1500
5413,-1480
5433,-1459
5454,-1437
5474,-1413
5492,-1387
5511,-1360
5529,-1333
5546,-1303
5562,-1273
5576,-1243
5590,-1211
5603,-1179
5614,-1145
5625,-1111
5633,-1077
5641,-1042
5648,-1006
5654,-971
5658,-935
5661,-898
5662,-860
5664,-823
5664,-790
5661,-756
5659,-722
5656,-687
5651,-651
5646,-614
5638,-575
5631,-535
5622,-493
5611,-449
5598,-403
5586,-354
5571,-304
5555,-251
5538,-196
5519,-138
5499,-78
5478,-16
5456,47
5432,112
5407,179
5383,247
5358,316
5333,383
5308,449
5282,513
5259,575
5237,633
5216,685
5197,733
5182,775
5167,811
5155,840
5146,865
5139,882
5133,895
5130,902
5129,907
5128,909
" style="stroke:#0000ff;stroke-width:0;
stroke-linejoin:bevel; stroke-linecap:butt;
fill:#ffd8d8;
"/>
<!-- Line -->
<polyline points="5129,906
5128,908
5127,912
5124,919
5119,932
5111,950
5102,974
5090,1003
5076,1039
5060,1081
5041,1129
5020,1182
4998,1239
4975,1301
4950,1365
4924,1432
4899,1499
4874,1567
4850,1635
4826,1702
4802,1767
4780,1832
4759,1893
4739,1953
4720,2011
4702,2067
4686,2119
4671,2170
4659,2218
4646,2264
4636,2308
4626,2350
4619,2390
4612,2429
4606,2467
4601,2502
4598,2537
4596,2572
4594,2605
4594,2638
4595,2676
4596,2713
4599,2750
4603,2786
4609,2822
4616,2857
4624,2892
4633,2927
4643,2960
4655,2994
4667,3026
4681,3058
4696,3088
4711,3119
4728,3148
4746,3175
4765,3203
4784,3228
4804,3252
4825,3274
4845,3295
4867,3315
4888,3333
4910,3350
4932,3364
4954,3377
4976,3388
4998,3398
5020,3406
5042,3414
5064,3419
5086,3422
5107,3424
5129,3425
5151,3424
5172,3422
5194,3419
5216,3414
5238,3406
5260,3398
5282,3388
5304,3377
5327,3364
5349,3350
5371,3333
5392,3315
5414,3295
5434,3274
5455,3252
5475,3228
5493,3203
5512,3175
5530,3148
5547,3119
5563,3088
5577,3058
5591,3026
5604,2994
5615,2960
5626,2927
5634,2892
5643,2857
5649,2822
5655,2786
5659,2750
5662,2713
5664,2676
5665,2638
5665,2605
5662,2572
5660,2537
5657,2502
5652,2467
5647,2429
5639,2390
5632,2350
5623,2308
5612,2264
5600,2218
5587,2170
5572,2119
5556,2067
5539,2011
5520,1953
5500,1893
5479,1832
5457,1767
5433,1702
5408,1635
5384,1567
5359,1499
5334,1432
5309,1365
5283,1301
5260,1239
5238,1182
5217,1129
5198,1081
5183,1039
5168,1003
5156,974
5147,950
5140,932
5134,919
5131,912
5130,908
5129,906
" style="stroke:#0000ff;stroke-width:0;
stroke-linejoin:bevel; stroke-linecap:butt;
fill:#ffd8d8;
"/>
<!-- Line -->
<polyline points="10268,916
10267,918
10266,922
10263,930
10258,942
10250,960
10241,984
10229,1014
10215,1049
10199,1091
10180,1140
10159,1192
10137,1250
10114,1312
10089,1376
10064,1442
10038,1509
10013,1577
9989,1646
9965,1713
9941,1778
9919,1842
9898,1904
9878,1964
9859,2022
9841,2077
9825,2130
9811,2180
9798,2228
9785,2275
9775,2319
9765,2361
9758,2401
9751,2439
9745,2477
9740,2513
9737,2548
9735,2582
9733,2616
9733,2648
9734,2686
9735,2724
9738,2761
9742,2796
9749,2832
9755,2868
9763,2902
9772,2937
9782,2971
9794,3004
9806,3037
9820,3068
9835,3099
9850,3129
9867,3159
9885,3186
9904,3213
9923,3238
9943,3262
9964,3285
9984,3306
10006,3325
10027,3343
10049,3360
10071,3375
10093,3387
10115,3399
10137,3408
10159,3417
10181,3424
10203,3429
10225,3433
10246,3435
10268,3436
10290,3435
10311,3433
10333,3429
10355,3424
10377,3417
10400,3408
10422,3399
10444,3387
10466,3375
10488,3360
10510,3343
10531,3325
10553,3306
10573,3285
10594,3262
10614,3238
10633,3213
10651,3186
10669,3159
10686,3129
10702,3099
10717,3068
10730,3037
10743,3004
10754,2971
10765,2937
10773,2902
10782,2868
10788,2832
10794,2796
10798,2761
10802,2724
10803,2686
10804,2648
10804,2616
10802,2582
10800,2548
10796,2513
10791,2477
10786,2439
10779,2401
10771,2361
10762,2319
10751,2275
10739,2228
10726,2180
10711,2130
10696,2077
10678,2022
10659,1964
10639,1904
10618,1842
10596,1778
10572,1713
10548,1646
10523,1577
10498,1509
10473,1442
10448,1376
10423,1312
10400,1250
10377,1192
10356,1140
10338,1091
10322,1049
10307,1014
10296,984
10286,960
10279,942
10274,930
10270,922
10269,918
10268,916
" style="stroke:#0000ff;stroke-width:0;
stroke-linejoin:bevel; stroke-linecap:butt;
fill:#ffd8d8;
"/>
<!-- Line -->
<polyline points="10267,919
10266,917
10265,913
10262,906
10257,893
10249,875
10240,851
10228,822
10214,786
10198,744
10179,696
10158,643
10136,585
10113,523
10088,459
10062,393
10037,326
10012,258
9988,190
9964,122
9940,57
9918,-6
9897,-68
9877,-128
9858,-185
9840,-241
9824,-293
9809,-344
9797,-392
9784,-438
9774,-482
9764,-524
9757,-564
9750,-603
9744,-641
9739,-677
9736,-711
9734,-746
9732,-780
9732,-812
9733,-850
9734,-888
9737,-924
9741,-960
9748,-996
9754,-1032
9762,-1066
9771,-1101
9781,-1134
9793,-1168
9805,-1201
9819,-1232
9834,-1262
9849,-1293
9866,-1322
9884,-1350
9903,-1377
9922,-1402
9942,-1426
9963,-1448
9983,-1469
10005,-1489
10026,-1507
10048,-1524
10070,-1539
10092,-1551
10114,-1563
10136,-1572
10158,-1581
10180,-1588
10202,-1593
10224,-1596
10245,-1598
10267,-1600
10289,-1598
10310,-1596
10332,-1593
10354,-1588
10376,-1581
10398,-1572
10420,-1563
10443,-1551
10465,-1539
10487,-1524
10509,-1507
10530,-1489
10552,-1469
10572,-1448
10593,-1426
10613,-1402
10632,-1377
10650,-1350
10668,-1322
10685,-1293
10701,-1262
10716,-1232
10729,-1201
10742,-1168
10753,-1134
10764,-1101
10772,-1066
10781,-1032
10787,-996
10793,-960
10797,-924
10801,-888
10802,-850
10803,-812
10803,-780
10801,-746
10798,-711
10795,-677
10790,-641
10785,-603
10777,-564
10770,-524
10761,-482
10750,-438
10738,-392
10725,-344
10710,-293
10695,-241
10677,-185
10658,-128
10638,-68
10617,-6
10595,57
10571,122
10546,190
10522,258
10497,326
10472,393
10447,459
10422,523
10398,585
10376,643
10355,696
10337,744
10321,786
10306,822
10295,851
10285,875
10278,893
10272,906
10269,913
10268,917
10267,919
" style="stroke:#0000ff;stroke-width:0;
stroke-linejoin:bevel; stroke-linecap:butt;
fill:#ffd8d8;
"/>
<!-- Line -->
<polyline points="10265,917
10263,918
10259,919
10251,922
10239,928
10221,935
10197,944
10167,956
10132,971
10090,986
10041,1005
9989,1026
9931,1048
9869,1071
9805,1097
9739,1122
9672,1147
9604,1172
9535,1196
9468,1220
9403,1245
9339,1267
9277,1288
9217,1308
9160,1327
9104,1344
9051,1360
9001,1375
8953,1387
8907,1400
8862,1411
8820,1420
8781,1427
8742,1435
8705,1440
8668,1445
8634,1448
8599,1450
8565,1453
8533,1453
8495,1451
8458,1450
8422,1447
8385,1443
8349,1437
8314,1430
8279,1422
8245,1414
8211,1403
8178,1392
8145,1379
8113,1365
8082,1351
8052,1335
8024,1318
7995,1300
7969,1281
7944,1262
7920,1243
7897,1222
7876,1202
7857,1180
7839,1159
7822,1137
7807,1114
7795,1092
7783,1070
7773,1048
7764,1026
7758,1004
7753,982
7749,960
7746,939
7746,917
7746,895
7749,874
7753,852
7758,830
7764,808
7773,786
7783,764
7795,742
7807,720
7822,698
7839,676
7857,655
7876,633
7897,613
7920,592
7944,572
7969,553
7995,534
8024,516
8052,499
8082,483
8113,469
8145,455
8178,443
8211,431
8245,420
8279,412
8314,404
8349,397
8385,391
8422,387
8458,384
8495,383
8533,382
8565,382
8599,384
8634,386
8668,389
8705,394
8742,400
8781,407
8820,414
8862,424
8907,434
8953,447
9001,459
9051,474
9104,490
9160,508
9217,527
9277,546
9339,567
9403,590
9468,614
9535,638
9604,662
9672,687
9739,712
9805,738
9869,763
9931,786
9989,808
10041,829
10090,848
10132,864
10167,878
10197,890
10221,899
10239,907
10251,912
10259,915
10263,916
10265,917
" style="stroke:#0000ff;stroke-width:0;
stroke-linejoin:bevel; stroke-linecap:butt;
fill:#ffd8d8;
"/>
<!-- Line -->
<polyline points="10269,917
10271,918
10276,919
10283,922
10296,928
10313,935
10338,944
10367,956
10403,971
10445,986
10493,1005
10545,1026
10603,1048
10665,1071
10729,1097
10795,1122
10862,1147
10931,1172
10999,1196
11066,1220
11131,1245
11195,1267
11257,1288
11317,1308
11375,1327
11430,1344
11483,1360
11533,1375
11582,1387
11628,1400
11672,1411
11714,1420
11754,1427
11793,1435
11829,1440
11866,1445
11901,1448
11935,1450
11969,1453
12002,1453
12039,1451
12076,1450
12113,1447
12150,1443
12185,1437
12220,1430
12256,1422
12289,1414
12324,1403
12356,1392
12389,1379
12422,1365
12452,1351
12482,1335
12511,1318
12539,1300
12565,1281
12591,1262
12615,1243
12638,1222
12659,1202
12678,1180
12696,1159
12712,1137
12727,1114
12740,1092
12751,1070
12762,1048
12770,1026
12776,1004
12782,982
12786,960
12788,939
12788,917
12788,895
12786,874
12782,852
12776,830
12770,808
12762,786
12751,764
12740,742
12727,720
12712,698
12696,676
12678,655
12659,633
12638,613
12615,592
12591,572
12565,553
12539,534
12511,516
12482,499
12452,483
12422,469
12389,455
12356,443
12324,431
12289,420
12256,412
12220,404
12185,397
12150,391
12113,387
12076,384
12039,383
12002,382
11969,382
11935,384
11901,386
11866,389
11829,394
11793,400
11754,407
11714,414
11672,424
11628,434
11582,447
11533,459
11483,474
11430,490
11375,508
11317,527
11257,546
11195,567
11131,590
11066,614
10999,638
10931,662
10862,687
10795,712
10729,738
10665,763
10603,786
10545,808
10493,829
10445,848
10403,864
10367,878
10338,890
10313,899
10296,907
10283,912
10276,915
10271,916
10269,917
" style="stroke:#0000ff;stroke-width:0;
stroke-linejoin:bevel; stroke-linecap:butt;
fill:#ffd8d8;
"/>
<!-- Text -->
<text xml:space="preserve" x="9921" y="6283" stroke="#000000" fill="#000000"  font-family="Times" font-style="normal" font-weight="normal" font-size="504" text-anchor="start">-B</text>
<!-- Text -->
<text xml:space="preserve" x="4724" y="1086" stroke="#000000" fill="#000000"  font-family="Times" font-style="normal" font-weight="normal" font-size="504" text-anchor="start">+E</text>
<!-- Text -->
<text xml:space="preserve" x="9987" y="1100" stroke="#000000" fill="#000000"  font-family="Times" font-style="normal" font-weight="normal" font-size="504" text-anchor="start">-E</text>
<!-- Text -->
<text xml:space="preserve" x="4691" y="6265" stroke="#000000" fill="#000000"  font-family="Times" font-style="normal" font-weight="normal" font-size="504" text-anchor="start">+B</text>
<!-- Line -->
<polyline points="9954,4903
10556,4302
" style="stroke:#000000;stroke-width:32;
stroke-linejoin:miter; stroke-linecap:butt;
fill:#d8d8d8;
"/>
<!-- Line -->
<polyline points="11438,5814
12006,6382
" style="stroke:#000000;stroke-width:32;
stroke-linejoin:miter; stroke-linecap:butt;
fill:#d8d8d8;
"/>
<!-- Line -->
<polyline points="11310,6706
11275,7575
" style="stroke:#000000;stroke-width:32;
stroke-linejoin:miter; stroke-linecap:butt;
fill:#d8d8d8;
"/>
<!-- Line -->
<polyline points="10556,7231
9954,7833
" style="stroke:#000000;stroke-width:32;
stroke-linejoin:miter; stroke-linecap:butt;
fill:#d8d8d8;
"/>
<!-- Line -->
<polyline points="9124,6382
8523,5781
" style="stroke:#000000;stroke-width:32;
stroke-linejoin:miter; stroke-linecap:butt;
fill:#d8d8d8;
"/>
<!-- Line -->
<polyline points="11776,5137
10941,5137
" style="stroke:#000000;stroke-width:32;
stroke-linejoin:miter; stroke-linecap:butt;
fill:#d8d8d8;
"/>
<!-- Line -->
<polyline points="9627,7026
8791,7026
" style="stroke:#000000;stroke-width:32;
stroke-linejoin:miter; stroke-linecap:butt;
fill:#d8d8d8;
"/>
<!-- Line -->
<polyline points="9249,5443
9249,4641
" style="stroke:#000000;stroke-width:32;
stroke-linejoin:miter; stroke-linecap:butt;
fill:#d8d8d8;
"/>
<!-- Line -->
<polyline points="5450,4898
4849,4297
" style="stroke:#000000;stroke-width:32;
stroke-linejoin:miter; stroke-linecap:butt;
fill:#d8d8d8;
"/>
<!-- Line -->
<polyline points="3967,5808
3399,6376
" style="stroke:#000000;stroke-width:32;
stroke-linejoin:miter; stroke-linecap:butt;
fill:#d8d8d8;
"/>
<!-- Line -->
<polyline points="4095,6701
4130,7570
" style="stroke:#000000;stroke-width:32;
stroke-linejoin:miter; stroke-linecap:butt;
fill:#d8d8d8;
"/>
<!-- Line -->
<polyline points="4849,7226
5450,7827
" style="stroke:#000000;stroke-width:32;
stroke-linejoin:miter; stroke-linecap:butt;
fill:#d8d8d8;
"/>
<!-- Line -->
<polyline points="6281,6376
6881,5776
" style="stroke:#000000;stroke-width:32;
stroke-linejoin:miter; stroke-linecap:butt;
fill:#d8d8d8;
"/>
<!-- Line -->
<polyline points="3629,5131
4464,5131
" style="stroke:#000000;stroke-width:32;
stroke-linejoin:miter; stroke-linecap:butt;
fill:#d8d8d8;
"/>
<!-- Line -->
<polyline points="5778,7021
6614,7021
" style="stroke:#000000;stroke-width:32;
stroke-linejoin:miter; stroke-linecap:butt;
fill:#d8d8d8;
"/>
<!-- Line -->
<polyline points="6156,5438
6156,4636
" style="stroke:#000000;stroke-width:32;
stroke-linejoin:miter; stroke-linecap:butt;
fill:#d8d8d8;
"/>
<!-- Line -->
<polyline points="5858,-472
6425,94
" style="stroke:#000000;stroke-width:32;
stroke-linejoin:miter; stroke-linecap:butt;
"/>
<!-- Line -->
<polyline points="4346,-472
3756,117
" style="stroke:#000000;stroke-width:32;
stroke-linejoin:miter; stroke-linecap:butt;
"/>
<!-- Line -->
<polyline points="3637,1275
3637,472
" style="stroke:#000000;stroke-width:32;
stroke-linejoin:miter; stroke-linecap:butt;
"/>
<!-- Line -->
<polyline points="3793,1640
4431,2230
" style="stroke:#000000;stroke-width:32;
stroke-linejoin:miter; stroke-linecap:butt;
"/>
<!-- Line -->
<polyline points="5527,2314
4677,2314
" style="stroke:#000000;stroke-width:32;
stroke-linejoin:miter; stroke-linecap:butt;
"/>
<!-- Line -->
<polyline points="4677,-614
5527,-614
" style="stroke:#000000;stroke-width:32;
stroke-linejoin:miter; stroke-linecap:butt;
"/>
<!-- Line -->
<polyline points="6449,1582
5858,2173
" style="stroke:#000000;stroke-width:32;
stroke-linejoin:miter; stroke-linecap:butt;
"/>
<!-- Line -->
<polyline points="6566,425
6566,1275
" style="stroke:#000000;stroke-width:32;
stroke-linejoin:miter; stroke-linecap:butt;
"/>
<!-- Line -->
<polyline points="11026,108
11593,-458
" style="stroke:#000000;stroke-width:32;
stroke-linejoin:miter; stroke-linecap:butt;
"/>
<!-- Line -->
<polyline points="8900,-411
9490,178
" style="stroke:#000000;stroke-width:32;
stroke-linejoin:miter; stroke-linecap:butt;
"/>
<!-- Line -->
<polyline points="11002,1595
11593,2186
" style="stroke:#000000;stroke-width:32;
stroke-linejoin:miter; stroke-linecap:butt;
"/>
<!-- Line -->
<polyline points="10270,1903
10270,2753
" style="stroke:#000000;stroke-width:32;
stroke-linejoin:miter; stroke-linecap:butt;
"/>
<!-- Line -->
<polyline points="9538,1595
8948,2234
" style="stroke:#000000;stroke-width:32;
stroke-linejoin:miter; stroke-linecap:butt;
"/>
<!-- Line -->
<polyline points="9231,864
8428,864
" style="stroke:#000000;stroke-width:32;
stroke-linejoin:miter; stroke-linecap:butt;
"/>
<!-- Line -->
<polyline points="10270,-175
10270,-1025
" style="stroke:#000000;stroke-width:32;
stroke-linejoin:miter; stroke-linecap:butt;
"/>
<!-- Line -->
<polyline points="11310,864
12160,864
" style="stroke:#000000;stroke-width:32;
stroke-linejoin:miter; stroke-linecap:butt;
"/>
<!-- Text -->
<text xml:space="preserve" x="5669" y="1039" stroke="#000000" fill="#000000"  font-family="Times" font-style="normal" font-weight="normal" font-size="252" text-anchor="start">+Q</text>
<!-- Text -->
<text xml:space="preserve" x="5480" y="472" stroke="#000000" fill="#000000"  font-family="Times" font-style="normal" font-weight="normal" font-size="252" text-anchor="start">+Q</text>
<!-- Text -->
<text xml:space="preserve" x="4866" y="141" stroke="#000000" fill="#000000"  font-family="Times" font-style="normal" font-weight="normal" font-size="252" text-anchor="start">+Q</text>
<!-- Text -->
<text xml:space="preserve" x="4299" y="472" stroke="#000000" fill="#000000"  font-family="Times" font-style="normal" font-weight="normal" font-size="252" text-anchor="start">+Q</text>
<!-- Text -->
<text xml:space="preserve" x="4110" y="1039" stroke="#000000" fill="#000000"  font-family="Times" font-style="normal" font-weight="normal" font-size="252" text-anchor="start">+Q</text>
<!-- Text -->
<text xml:space="preserve" x="4346" y="1606" stroke="#000000" fill="#000000"  font-family="Times" font-style="normal" font-weight="normal" font-size="252" text-anchor="start">+Q</text>
<!-- Text -->
<text xml:space="preserve" x="4913" y="1889" stroke="#000000" fill="#000000"  font-family="Times" font-style="normal" font-weight="normal" font-size="252" text-anchor="start">+Q</text>
<!-- Text -->
<text xml:space="preserve" x="5196" y="188" stroke="#000000" fill="#000000"  font-family="Times" font-style="normal" font-weight="normal" font-size="189" text-anchor="start">r</text>
<!-- Text -->
<text xml:space="preserve" x="4629" y="519" stroke="#000000" fill="#000000"  font-family="Times" font-style="normal" font-weight="normal" font-size="189" text-anchor="start">r</text>
<!-- Text -->
<text xml:space="preserve" x="4440" y="1086" stroke="#000000" fill="#000000"  font-family="Times" font-style="normal" font-weight="normal" font-size="189" text-anchor="start">r</text>
<!-- Text -->
<text xml:space="preserve" x="4677" y="1653" stroke="#000000" fill="#000000"  font-family="Times" font-style="normal" font-weight="normal" font-size="189" text-anchor="start">r</text>
<!-- Text -->
<text xml:space="preserve" x="5244" y="1937" stroke="#000000" fill="#000000"  font-family="Times" font-style="normal" font-weight="normal" font-size="189" text-anchor="start">r</text>
<!-- Text -->
<text xml:space="preserve" x="5433" y="1606" stroke="#000000" fill="#000000"  font-family="Times" font-style="normal" font-weight="normal" font-size="252" text-anchor="start">+Q</text>
<!-- Text -->
<text xml:space="preserve" x="5763" y="1653" stroke="#000000" fill="#000000"  font-family="Times" font-style="normal" font-weight="normal" font-size="189" text-anchor="start">r</text>
<!-- Text -->
<text xml:space="preserve" x="6000" y="1086" stroke="#000000" fill="#000000"  font-family="Times" font-style="normal" font-weight="normal" font-size="189" text-anchor="start">r</text>
<!-- Text -->
<text xml:space="preserve" x="5811" y="519" stroke="#000000" fill="#000000"  font-family="Times" font-style="normal" font-weight="normal" font-size="189" text-anchor="start">r</text>
<!-- Text -->
<text xml:space="preserve" x="10648" y="1572" stroke="#000000" fill="#000000"  font-family="Times" font-style="normal" font-weight="normal" font-size="252" text-anchor="start">-Q</text>
<!-- Text -->
<text xml:space="preserve" x="9562" y="1572" stroke="#000000" fill="#000000"  font-family="Times" font-style="normal" font-weight="normal" font-size="252" text-anchor="start">-Q</text>
<!-- Text -->
<text xml:space="preserve" x="9514" y="438" stroke="#000000" fill="#000000"  font-family="Times" font-style="normal" font-weight="normal" font-size="252" text-anchor="start">-Q</text>
<!-- Text -->
<text xml:space="preserve" x="10081" y="108" stroke="#000000" fill="#000000"  font-family="Times" font-style="normal" font-weight="normal" font-size="252" text-anchor="start">-Q</text>
<!-- Text -->
<text xml:space="preserve" x="10696" y="438" stroke="#000000" fill="#000000"  font-family="Times" font-style="normal" font-weight="normal" font-size="252" text-anchor="start">-Q</text>
<!-- Text -->
<text xml:space="preserve" x="10885" y="1005" stroke="#000000" fill="#000000"  font-family="Times" font-style="normal" font-weight="normal" font-size="252" text-anchor="start">-Q</text>
<!-- Text -->
<text xml:space="preserve" x="10960" y="1606" stroke="#000000" fill="#000000"  font-family="Times" font-style="normal" font-weight="normal" font-size="189" text-anchor="start">r</text>
<!-- Text -->
<text xml:space="preserve" x="11196" y="1039" stroke="#000000" fill="#000000"  font-family="Times" font-style="normal" font-weight="normal" font-size="189" text-anchor="start">r</text>
<!-- Text -->
<text xml:space="preserve" x="11007" y="472" stroke="#000000" fill="#000000"  font-family="Times" font-style="normal" font-weight="normal" font-size="189" text-anchor="start">r</text>
<!-- Text -->
<text xml:space="preserve" x="10393" y="141" stroke="#000000" fill="#000000"  font-family="Times" font-style="normal" font-weight="normal" font-size="189" text-anchor="start">r</text>
<!-- Text -->
<text xml:space="preserve" x="9826" y="472" stroke="#000000" fill="#000000"  font-family="Times" font-style="normal" font-weight="normal" font-size="189" text-anchor="start">r</text>
<!-- Text -->
<text xml:space="preserve" x="9325" y="1005" stroke="#000000" fill="#000000"  font-family="Times" font-style="normal" font-weight="normal" font-size="252" text-anchor="start">-Q</text>
<!-- Text -->
<text xml:space="preserve" x="9637" y="1039" stroke="#000000" fill="#000000"  font-family="Times" font-style="normal" font-weight="normal" font-size="189" text-anchor="start">r</text>
<!-- Text -->
<text xml:space="preserve" x="9874" y="1606" stroke="#000000" fill="#000000"  font-family="Times" font-style="normal" font-weight="normal" font-size="189" text-anchor="start">r</text>
<!-- Text -->
<text xml:space="preserve" x="10129" y="1856" stroke="#000000" fill="#000000"  font-family="Times" font-style="normal" font-weight="normal" font-size="252" text-anchor="start">-Q</text>
<!-- Text -->
<text xml:space="preserve" x="10440" y="1889" stroke="#000000" fill="#000000"  font-family="Times" font-style="normal" font-weight="normal" font-size="189" text-anchor="start">r</text>
<!-- Text -->
<text xml:space="preserve" x="4313" y="5604" stroke="#000000" fill="#000000"  font-family="Times" font-style="normal" font-weight="normal" font-size="252" text-anchor="start">+U</text>
<!-- Text -->
<text xml:space="preserve" x="4880" y="5273" stroke="#000000" fill="#000000"  font-family="Times" font-style="normal" font-weight="normal" font-size="252" text-anchor="start">+U</text>
<!-- Text -->
<text xml:space="preserve" x="5495" y="5604" stroke="#000000" fill="#000000"  font-family="Times" font-style="normal" font-weight="normal" font-size="252" text-anchor="start">+U</text>
<!-- Text -->
<text xml:space="preserve" x="5683" y="6171" stroke="#000000" fill="#000000"  font-family="Times" font-style="normal" font-weight="normal" font-size="252" text-anchor="start">+U</text>
<!-- Text -->
<text xml:space="preserve" x="5447" y="6738" stroke="#000000" fill="#000000"  font-family="Times" font-style="normal" font-weight="normal" font-size="252" text-anchor="start">+U</text>
<!-- Text -->
<text xml:space="preserve" x="4928" y="7021" stroke="#000000" fill="#000000"  font-family="Times" font-style="normal" font-weight="normal" font-size="252" text-anchor="start">+U</text>
<!-- Text -->
<text xml:space="preserve" x="4361" y="6738" stroke="#000000" fill="#000000"  font-family="Times" font-style="normal" font-weight="normal" font-size="252" text-anchor="start">+U</text>
<!-- Text -->
<text xml:space="preserve" x="4124" y="6171" stroke="#000000" fill="#000000"  font-family="Times" font-style="normal" font-weight="normal" font-size="252" text-anchor="start">+U</text>
<!-- Text -->
<text xml:space="preserve" x="9463" y="5604" stroke="#000000" fill="#000000"  font-family="Times" font-style="normal" font-weight="normal" font-size="252" text-anchor="start">-U</text>
<!-- Text -->
<text xml:space="preserve" x="9274" y="6171" stroke="#000000" fill="#000000"  font-family="Times" font-style="normal" font-weight="normal" font-size="252" text-anchor="start">-U</text>
<!-- Text -->
<text xml:space="preserve" x="9510" y="6738" stroke="#000000" fill="#000000"  font-family="Times" font-style="normal" font-weight="normal" font-size="252" text-anchor="start">-U</text>
<!-- Text -->
<text xml:space="preserve" x="10077" y="7021" stroke="#000000" fill="#000000"  font-family="Times" font-style="normal" font-weight="normal" font-size="252" text-anchor="start">-U</text>
<!-- Text -->
<text xml:space="preserve" x="10597" y="6738" stroke="#000000" fill="#000000"  font-family="Times" font-style="normal" font-weight="normal" font-size="252" text-anchor="start">-U</text>
<!-- Text -->
<text xml:space="preserve" x="10833" y="6171" stroke="#000000" fill="#000000"  font-family="Times" font-style="normal" font-weight="normal" font-size="252" text-anchor="start">-U</text>
<!-- Text -->
<text xml:space="preserve" x="10644" y="5604" stroke="#000000" fill="#000000"  font-family="Times" font-style="normal" font-weight="normal" font-size="252" text-anchor="start">-U</text>
<!-- Text -->
<text xml:space="preserve" x="10030" y="5273" stroke="#000000" fill="#000000"  font-family="Times" font-style="normal" font-weight="normal" font-size="252" text-anchor="start">-U</text>
<!-- Text -->
<text xml:space="preserve" x="2834" y="944" stroke="#ff0000" fill="#ff0000"  font-family="Times" font-style="normal" font-weight="normal" font-size="252" text-anchor="start">+Q</text>
<!-- Text -->
<text xml:space="preserve" x="7086" y="944" stroke="#ff0000" fill="#ff0000"  font-family="Times" font-style="normal" font-weight="normal" font-size="252" text-anchor="start">+Q</text>
<!-- Text -->
<text xml:space="preserve" x="3448" y="-472" stroke="#0000ff" fill="#0000ff"  font-family="Times" font-style="normal" font-weight="normal" font-size="252" text-anchor="start">-U</text>
<!-- Text -->
<text xml:space="preserve" x="3401" y="2456" stroke="#0000ff" fill="#0000ff"  font-family="Times" font-style="normal" font-weight="normal" font-size="252" text-anchor="start">+U</text>
<!-- Text -->
<text xml:space="preserve" x="6377" y="2456" stroke="#0000ff" fill="#0000ff"  font-family="Times" font-style="normal" font-weight="normal" font-size="252" text-anchor="start">-U</text>
<!-- Text -->
<text xml:space="preserve" x="6283" y="-472" stroke="#0000ff" fill="#0000ff"  font-family="Times" font-style="normal" font-weight="normal" font-size="252" text-anchor="start">+U</text>
<!-- Text -->
<text xml:space="preserve" x="8003" y="958" stroke="#ff0000" fill="#ff0000"  font-family="Times" font-style="normal" font-weight="normal" font-size="252" text-anchor="start">-Q</text>
<!-- Text -->
<text xml:space="preserve" x="12255" y="958" stroke="#ff0000" fill="#ff0000"  font-family="Times" font-style="normal" font-weight="normal" font-size="252" text-anchor="start">-Q</text>
<!-- Text -->
<text xml:space="preserve" x="8617" y="-458" stroke="#0000ff" fill="#0000ff"  font-family="Times" font-style="normal" font-weight="normal" font-size="252" text-anchor="start">+U</text>
<!-- Text -->
<text xml:space="preserve" x="8570" y="2470" stroke="#0000ff" fill="#0000ff"  font-family="Times" font-style="normal" font-weight="normal" font-size="252" text-anchor="start">-U</text>
<!-- Text -->
<text xml:space="preserve" x="11546" y="2470" stroke="#0000ff" fill="#0000ff"  font-family="Times" font-style="normal" font-weight="normal" font-size="252" text-anchor="start">+U</text>
<!-- Text -->
<text xml:space="preserve" x="11451" y="-458" stroke="#0000ff" fill="#0000ff"  font-family="Times" font-style="normal" font-weight="normal" font-size="252" text-anchor="start">-U</text>
<!-- Text -->
<text xml:space="preserve" x="5763" y="6803" stroke="#000000" fill="#000000"  font-family="Times" font-style="normal" font-weight="normal" font-size="189" text-anchor="start">r</text>
<!-- Text -->
<text xml:space="preserve" x="6000" y="6236" stroke="#000000" fill="#000000"  font-family="Times" font-style="normal" font-weight="normal" font-size="189" text-anchor="start">r</text>
<!-- Text -->
<text xml:space="preserve" x="5811" y="5669" stroke="#000000" fill="#000000"  font-family="Times" font-style="normal" font-weight="normal" font-size="189" text-anchor="start">r</text>
<!-- Text -->
<text xml:space="preserve" x="5196" y="5338" stroke="#000000" fill="#000000"  font-family="Times" font-style="normal" font-weight="normal" font-size="189" text-anchor="start">r</text>
<!-- Text -->
<text xml:space="preserve" x="4629" y="5669" stroke="#000000" fill="#000000"  font-family="Times" font-style="normal" font-weight="normal" font-size="189" text-anchor="start">r</text>
<!-- Text -->
<text xml:space="preserve" x="4440" y="6236" stroke="#000000" fill="#000000"  font-family="Times" font-style="normal" font-weight="normal" font-size="189" text-anchor="start">r</text>
<!-- Text -->
<text xml:space="preserve" x="4677" y="6803" stroke="#000000" fill="#000000"  font-family="Times" font-style="normal" font-weight="normal" font-size="189" text-anchor="start">r</text>
<!-- Text -->
<text xml:space="preserve" x="5244" y="7086" stroke="#000000" fill="#000000"  font-family="Times" font-style="normal" font-weight="normal" font-size="189" text-anchor="start">r</text>
<!-- Text -->
<text xml:space="preserve" x="10346" y="7086" stroke="#000000" fill="#000000"  font-family="Times" font-style="normal" font-weight="normal" font-size="189" text-anchor="start">r</text>
<!-- Text -->
<text xml:space="preserve" x="10866" y="6803" stroke="#000000" fill="#000000"  font-family="Times" font-style="normal" font-weight="normal" font-size="189" text-anchor="start">r</text>
<!-- Text -->
<text xml:space="preserve" x="11102" y="6236" stroke="#000000" fill="#000000"  font-family="Times" font-style="normal" font-weight="normal" font-size="189" text-anchor="start">r</text>
<!-- Text -->
<text xml:space="preserve" x="10913" y="5669" stroke="#000000" fill="#000000"  font-family="Times" font-style="normal" font-weight="normal" font-size="189" text-anchor="start">r</text>
<!-- Text -->
<text xml:space="preserve" x="10299" y="5338" stroke="#000000" fill="#000000"  font-family="Times" font-style="normal" font-weight="normal" font-size="189" text-anchor="start">r</text>
<!-- Text -->
<text xml:space="preserve" x="9732" y="5669" stroke="#000000" fill="#000000"  font-family="Times" font-style="normal" font-weight="normal" font-size="189" text-anchor="start">r</text>
<!-- Text -->
<text xml:space="preserve" x="9543" y="6236" stroke="#000000" fill="#000000"  font-family="Times" font-style="normal" font-weight="normal" font-size="189" text-anchor="start">r</text>
<!-- Text -->
<text xml:space="preserve" x="9779" y="6803" stroke="#000000" fill="#000000"  font-family="Times" font-style="normal" font-weight="normal" font-size="189" text-anchor="start">r</text>
<!-- Text -->
<text xml:space="preserve" x="4913" y="3023" stroke="#ff0000" fill="#ff0000"  font-family="Times" font-style="normal" font-weight="normal" font-size="252" text-anchor="start">-Q</text>
<!-- Text -->
<text xml:space="preserve" x="4960" y="-1086" stroke="#ff0000" fill="#ff0000"  font-family="Times" font-style="normal" font-weight="normal" font-size="252" text-anchor="start">-Q</text>
<!-- Text -->
<text xml:space="preserve" x="10062" y="3023" stroke="#ff0000" fill="#ff0000"  font-family="Times" font-style="normal" font-weight="normal" font-size="252" text-anchor="start">+Q</text>
<!-- Text -->
<text xml:space="preserve" x="10062" y="-1086" stroke="#ff0000" fill="#ff0000"  font-family="Times" font-style="normal" font-weight="normal" font-size="252" text-anchor="start">+Q</text>
<!-- Text -->
<text xml:space="preserve" x="4913" y="4157" stroke="#0000ff" fill="#0000ff"  font-family="Times" font-style="normal" font-weight="normal" font-size="252" text-anchor="start">+U</text>
<!-- Text -->
<text xml:space="preserve" x="4913" y="8267" stroke="#0000ff" fill="#0000ff"  font-family="Times" font-style="normal" font-weight="normal" font-size="252" text-anchor="start">+U</text>
<!-- Text -->
<text xml:space="preserve" x="2849" y="6171" stroke="#0000ff" fill="#0000ff"  font-family="Times" font-style="normal" font-weight="normal" font-size="252" text-anchor="start">-U</text>
<!-- Text -->
<text xml:space="preserve" x="7101" y="6171" stroke="#0000ff" fill="#0000ff"  font-family="Times" font-style="normal" font-weight="normal" font-size="252" text-anchor="start">-U</text>
<!-- Text -->
<text xml:space="preserve" x="7998" y="6171" stroke="#0000ff" fill="#0000ff"  font-family="Times" font-style="normal" font-weight="normal" font-size="252" text-anchor="start">+U</text>
<!-- Text -->
<text xml:space="preserve" x="12250" y="6171" stroke="#0000ff" fill="#0000ff"  font-family="Times" font-style="normal" font-weight="normal" font-size="252" text-anchor="start">+U</text>
<!-- Text -->
<text xml:space="preserve" x="10062" y="4157" stroke="#0000ff" fill="#0000ff"  font-family="Times" font-style="normal" font-weight="normal" font-size="252" text-anchor="start">-U</text>
<!-- Text -->
<text xml:space="preserve" x="10062" y="8267" stroke="#0000ff" fill="#0000ff"  font-family="Times" font-style="normal" font-weight="normal" font-size="252" text-anchor="start">-U</text>
<!-- Text -->
<text xml:space="preserve" x="3463" y="4753" stroke="#ff0000" fill="#ff0000"  font-family="Times" font-style="normal" font-weight="normal" font-size="252" text-anchor="start">-Q</text>
<!-- Text -->
<text xml:space="preserve" x="6298" y="4753" stroke="#ff0000" fill="#ff0000"  font-family="Times" font-style="normal" font-weight="normal" font-size="252" text-anchor="start">+Q</text>
<!-- Text -->
<text xml:space="preserve" x="3416" y="7682" stroke="#ff0000" fill="#ff0000"  font-family="Times" font-style="normal" font-weight="normal" font-size="252" text-anchor="start">+Q</text>
<!-- Text -->
<text xml:space="preserve" x="6392" y="7682" stroke="#ff0000" fill="#ff0000"  font-family="Times" font-style="normal" font-weight="normal" font-size="252" text-anchor="start">-Q</text>
<!-- Text -->
<text xml:space="preserve" x="8565" y="7682" stroke="#ff0000" fill="#ff0000"  font-family="Times" font-style="normal" font-weight="normal" font-size="252" text-anchor="start">-Q</text>
<!-- Text -->
<text xml:space="preserve" x="11542" y="7682" stroke="#ff0000" fill="#ff0000"  font-family="Times" font-style="normal" font-weight="normal" font-size="252" text-anchor="start">+Q</text>
<!-- Text -->
<text xml:space="preserve" x="11447" y="4753" stroke="#ff0000" fill="#ff0000"  font-family="Times" font-style="normal" font-weight="normal" font-size="252" text-anchor="start">-Q</text>
<!-- Text -->
<text xml:space="preserve" x="8613" y="4753" stroke="#ff0000" fill="#ff0000"  font-family="Times" font-style="normal" font-weight="normal" font-size="252" text-anchor="start">+Q</text>
</g>
</svg>
