<?xml version="1.0" encoding="UTF-8" standalone="no"?>
<!-- Created with Inkscape (http://www.inkscape.org/) -->

<svg
   xmlns:dc="http://purl.org/dc/elements/1.1/"
   xmlns:cc="http://creativecommons.org/ns#"
   xmlns:rdf="http://www.w3.org/1999/02/22-rdf-syntax-ns#"
   xmlns:svg="http://www.w3.org/2000/svg"
   xmlns="http://www.w3.org/2000/svg"
   xmlns:sodipodi="http://sodipodi.sourceforge.net/DTD/sodipodi-0.dtd"
   xmlns:inkscape="http://www.inkscape.org/namespaces/inkscape"
   id="svg2"
   version="1.1"
   inkscape:version="0.48.5 r10040"
   width="381.25"
   height="302.5"
   xml:space="preserve"
   sodipodi:docname="foregroundproj.pdf"><metadata
     id="metadata8"><rdf:RDF><cc:Work
         rdf:about=""><dc:format>image/svg+xml</dc:format><dc:type
           rdf:resource="http://purl.org/dc/dcmitype/StillImage" /><dc:title></dc:title></cc:Work></rdf:RDF></metadata><defs
     id="defs6"><clipPath
       clipPathUnits="userSpaceOnUse"
       id="clipPath226"><path
         d="m 52,71 247.414,0 0,-1 L 52,70 l 0,1 z"
         id="path228" /></clipPath><clipPath
       clipPathUnits="userSpaceOnUse"
       id="clipPath238"><path
         d="m 52,224.617 169,0 L 221,70 52,70 52,224.617 z"
         id="path240" /></clipPath><clipPath
       clipPathUnits="userSpaceOnUse"
       id="clipPath282"><path
         d="m 181,224.617 2,0 0,-38.617 -2,0 0,38.617 z"
         id="path284" /></clipPath><clipPath
       clipPathUnits="userSpaceOnUse"
       id="clipPath306"><path
         d="m 86,81 213.414,0 0,-31 L 86,50 86,81 z"
         id="path308" /></clipPath><clipPath
       clipPathUnits="userSpaceOnUse"
       id="clipPath318"><path
         d="m 86,100 213.414,0 0,-24 L 86,76 l 0,24 z"
         id="path320" /></clipPath><clipPath
       clipPathUnits="userSpaceOnUse"
       id="clipPath330"><path
         d="m 86,78 213.414,0 0,-18 L 86,60 86,78 z"
         id="path332" /></clipPath><clipPath
       clipPathUnits="userSpaceOnUse"
       id="clipPath346"><path
         d="m 86,76 213.414,0 0,-12 L 86,64 86,76 z"
         id="path348" /></clipPath><clipPath
       clipPathUnits="userSpaceOnUse"
       id="clipPath364"><path
         d="m 86,75 213.414,0 0,-12 L 86,63 86,75 z"
         id="path366" /></clipPath><clipPath
       clipPathUnits="userSpaceOnUse"
       id="clipPath376"><path
         d="m 86,115 213.414,0 0,-41 L 86,74 l 0,41 z"
         id="path378" /></clipPath><clipPath
       clipPathUnits="userSpaceOnUse"
       id="clipPath388"><path
         d="m 86,80 213.414,0 0,-26 L 86,54 86,80 z"
         id="path390" /></clipPath><clipPath
       clipPathUnits="userSpaceOnUse"
       id="clipPath400"><path
         d="m 86,93 213.414,0 0,-12 L 86,81 86,93 z"
         id="path402" /></clipPath></defs><sodipodi:namedview
     pagecolor="#ffffff"
     bordercolor="#666666"
     borderopacity="1"
     objecttolerance="10"
     gridtolerance="10"
     guidetolerance="10"
     inkscape:pageopacity="0"
     inkscape:pageshadow="2"
     inkscape:window-width="922"
     inkscape:window-height="1030"
     id="namedview4"
     showgrid="false"
     inkscape:zoom="1.5603306"
     inkscape:cx="186.84383"
     inkscape:cy="206.03132"
     inkscape:window-x="0"
     inkscape:window-y="18"
     inkscape:window-maximized="0"
     inkscape:current-layer="g10" /><g
     id="g10"
     inkscape:groupmode="layer"
     inkscape:label="foregroundproj"
     transform="matrix(1.25,0,0,-1.25,0,302.5)"><path
       inkscape:connector-curvature="0"
       id="path14"
       style="fill:#ffffff;fill-opacity:1;fill-rule:nonzero;stroke:none"
       d="m -0.72508407,13.414055 305.00000407,0 0,242.000005 -305.00000407,0 0,-242.000005 z" /><g
       transform="translate(0,242)"
       id="g18"><path
         inkscape:connector-curvature="0"
         id="path20"
         style="fill:none;stroke:#ffffff;stroke-width:0.43635601;stroke-linecap:butt;stroke-linejoin:round;stroke-miterlimit:10;stroke-opacity:1;stroke-dasharray:none"
         d="m 52,-17.383 247.34,0 0,-200.215 -247.34,0 0,200.215 z" /></g><g
       transform="translate(0,242)"
       id="g22"><path
         inkscape:connector-curvature="0"
         id="path24"
         style="fill:none;stroke:#000000;stroke-width:0.43635601;stroke-linecap:butt;stroke-linejoin:round;stroke-miterlimit:10;stroke-opacity:1;stroke-dasharray:none"
         d="m 52,-217.598 247.34,0" /></g><g
       transform="translate(0,242)"
       id="g26"><path
         inkscape:connector-curvature="0"
         id="path28"
         style="fill:none;stroke:#000000;stroke-width:0.43635601;stroke-linecap:butt;stroke-linejoin:round;stroke-miterlimit:10;stroke-opacity:1;stroke-dasharray:none"
         d="m 52,-17.383 247.34,0" /></g><g
       transform="translate(0,242)"
       id="g30"><path
         inkscape:connector-curvature="0"
         id="path32"
         style="fill:none;stroke:#000000;stroke-width:0.43635601;stroke-linecap:butt;stroke-linejoin:round;stroke-miterlimit:10;stroke-opacity:1;stroke-dasharray:none"
         d="m 52,-217.598 0,200.215" /></g><g
       transform="translate(0,242)"
       id="g34"><path
         inkscape:connector-curvature="0"
         id="path36"
         style="fill:none;stroke:#000000;stroke-width:0.43635601;stroke-linecap:butt;stroke-linejoin:round;stroke-miterlimit:10;stroke-opacity:1;stroke-dasharray:none"
         d="m 299.34,-217.598 0,200.215" /></g><g
       transform="translate(0,242)"
       id="g38"><path
         inkscape:connector-curvature="0"
         id="path40"
         style="fill:none;stroke:#000000;stroke-width:0.43635601;stroke-linecap:butt;stroke-linejoin:round;stroke-miterlimit:10;stroke-opacity:1;stroke-dasharray:none"
         d="m 52,-217.598 247.34,0" /></g><g
       transform="translate(0,242)"
       id="g42"><path
         inkscape:connector-curvature="0"
         id="path44"
         style="fill:none;stroke:#000000;stroke-width:0.43635601;stroke-linecap:butt;stroke-linejoin:round;stroke-miterlimit:10;stroke-opacity:1;stroke-dasharray:none"
         d="m 52,-217.598 0,200.215" /></g><g
       transform="translate(0,242)"
       id="g46"><path
         inkscape:connector-curvature="0"
         id="path48"
         style="fill:none;stroke:#000000;stroke-width:0.43635601;stroke-linecap:butt;stroke-linejoin:round;stroke-miterlimit:10;stroke-opacity:1;stroke-dasharray:none"
         d="m 52,-217.598 0,2.547" /></g><g
       transform="translate(0,242)"
       id="g50"><path
         inkscape:connector-curvature="0"
         id="path52"
         style="fill:none;stroke:#000000;stroke-width:0.43635601;stroke-linecap:butt;stroke-linejoin:round;stroke-miterlimit:10;stroke-opacity:1;stroke-dasharray:none"
         d="m 52,-17.383 0,-2.472" /></g><text
       id="text54"
       transform="scale(1,-1)"
       x="49.597656"
       y="-13.393749"><tspan
         id="tspan56"
         y="-13.393749"
         x="49.597656"
         style="font-size:8.72753906px;font-variant:normal;writing-mode:lr-tb;fill:#000000;fill-opacity:1;fill-rule:nonzero;stroke:none;font-family:Nimbus Sans L;-inkscape-font-specification:NimbusSanL-Regu">0</tspan></text>
<g
       transform="translate(0,242)"
       id="g58"><path
         inkscape:connector-curvature="0"
         id="path60"
         style="fill:none;stroke:#000000;stroke-width:0.43635601;stroke-linecap:butt;stroke-linejoin:round;stroke-miterlimit:10;stroke-opacity:1;stroke-dasharray:none"
         d="m 89.453,-217.598 0,2.547" /></g><g
       transform="translate(0,242)"
       id="g62"><path
         inkscape:connector-curvature="0"
         id="path64"
         style="fill:none;stroke:#000000;stroke-width:0.43635601;stroke-linecap:butt;stroke-linejoin:round;stroke-miterlimit:10;stroke-opacity:1;stroke-dasharray:none"
         d="m 89.453,-17.383 0,-2.472" /></g><text
       id="text66"
       transform="scale(1,-1)"
       x="84.652344"
       y="-13.393749"><tspan
         id="tspan68"
         sodipodi:role="line"
         y="-13.393749"
         x="84.652344 89.504852"
         style="font-size:8.72753906px;font-variant:normal;writing-mode:lr-tb;fill:#000000;fill-opacity:1;fill-rule:nonzero;stroke:none;font-family:Nimbus Sans L;-inkscape-font-specification:NimbusSanL-Regu">50</tspan></text>
<g
       transform="translate(0,242)"
       id="g70"><path
         inkscape:connector-curvature="0"
         id="path72"
         style="fill:none;stroke:#000000;stroke-width:0.43635601;stroke-linecap:butt;stroke-linejoin:round;stroke-miterlimit:10;stroke-opacity:1;stroke-dasharray:none"
         d="m 126.906,-217.598 0,2.547" /></g><g
       transform="translate(0,242)"
       id="g74"><path
         inkscape:connector-curvature="0"
         id="path76"
         style="fill:none;stroke:#000000;stroke-width:0.43635601;stroke-linecap:butt;stroke-linejoin:round;stroke-miterlimit:10;stroke-opacity:1;stroke-dasharray:none"
         d="m 126.906,-17.383 0,-2.472" /></g><text
       id="text78"
       transform="scale(1,-1)"
       x="119.63281"
       y="-13.393749"><tspan
         id="tspan80"
         sodipodi:role="line"
         y="-13.393749"
         x="119.63281 124.48532 129.33783"
         style="font-size:8.72753906px;font-variant:normal;writing-mode:lr-tb;fill:#000000;fill-opacity:1;fill-rule:nonzero;stroke:none;font-family:Nimbus Sans L;-inkscape-font-specification:NimbusSanL-Regu">100</tspan></text>
<g
       transform="translate(0,242)"
       id="g82"><path
         inkscape:connector-curvature="0"
         id="path84"
         style="fill:none;stroke:#000000;stroke-width:0.43635601;stroke-linecap:butt;stroke-linejoin:round;stroke-miterlimit:10;stroke-opacity:1;stroke-dasharray:none"
         d="m 164.359,-217.598 0,2.547" /></g><g
       transform="translate(0,242)"
       id="g86"><path
         inkscape:connector-curvature="0"
         id="path88"
         style="fill:none;stroke:#000000;stroke-width:0.43635601;stroke-linecap:butt;stroke-linejoin:round;stroke-miterlimit:10;stroke-opacity:1;stroke-dasharray:none"
         d="m 164.359,-17.383 0,-2.472" /></g><text
       id="text90"
       transform="scale(1,-1)"
       x="157.08984"
       y="-13.393749"><tspan
         id="tspan92"
         sodipodi:role="line"
         y="-13.393749"
         x="157.08984 161.94235 166.79486"
         style="font-size:8.72753906px;font-variant:normal;writing-mode:lr-tb;fill:#000000;fill-opacity:1;fill-rule:nonzero;stroke:none;font-family:Nimbus Sans L;-inkscape-font-specification:NimbusSanL-Regu">150</tspan></text>
<g
       transform="translate(0,242)"
       id="g94"><path
         inkscape:connector-curvature="0"
         id="path96"
         style="fill:none;stroke:#000000;stroke-width:0.43635601;stroke-linecap:butt;stroke-linejoin:round;stroke-miterlimit:10;stroke-opacity:1;stroke-dasharray:none"
         d="m 201.887,-217.598 0,2.547" /></g><g
       transform="translate(0,242)"
       id="g98"><path
         inkscape:connector-curvature="0"
         id="path100"
         style="fill:none;stroke:#000000;stroke-width:0.43635601;stroke-linecap:butt;stroke-linejoin:round;stroke-miterlimit:10;stroke-opacity:1;stroke-dasharray:none"
         d="m 201.887,-17.383 0,-2.472" /></g><text
       id="text102"
       transform="scale(1,-1)"
       x="194.61328"
       y="-13.393749"><tspan
         id="tspan104"
         sodipodi:role="line"
         y="-13.393749"
         x="194.61328 199.46579 204.3183"
         style="font-size:8.72753906px;font-variant:normal;writing-mode:lr-tb;fill:#000000;fill-opacity:1;fill-rule:nonzero;stroke:none;font-family:Nimbus Sans L;-inkscape-font-specification:NimbusSanL-Regu">200</tspan></text>
<g
       transform="translate(0,242)"
       id="g106"><path
         inkscape:connector-curvature="0"
         id="path108"
         style="fill:none;stroke:#000000;stroke-width:0.43635601;stroke-linecap:butt;stroke-linejoin:round;stroke-miterlimit:10;stroke-opacity:1;stroke-dasharray:none"
         d="m 239.34,-217.598 0,2.547" /></g><g
       transform="translate(0,242)"
       id="g110"><path
         inkscape:connector-curvature="0"
         id="path112"
         style="fill:none;stroke:#000000;stroke-width:0.43635601;stroke-linecap:butt;stroke-linejoin:round;stroke-miterlimit:10;stroke-opacity:1;stroke-dasharray:none"
         d="m 239.34,-17.383 0,-2.472" /></g><text
       id="text114"
       transform="scale(1,-1)"
       x="232.07031"
       y="-13.393749"><tspan
         id="tspan116"
         sodipodi:role="line"
         y="-13.393749"
         x="232.07031 236.92282 241.77533"
         style="font-size:8.72753906px;font-variant:normal;writing-mode:lr-tb;fill:#000000;fill-opacity:1;fill-rule:nonzero;stroke:none;font-family:Nimbus Sans L;-inkscape-font-specification:NimbusSanL-Regu">250</tspan></text>
<g
       transform="translate(0,242)"
       id="g118"><path
         inkscape:connector-curvature="0"
         id="path120"
         style="fill:none;stroke:#000000;stroke-width:0.43635601;stroke-linecap:butt;stroke-linejoin:round;stroke-miterlimit:10;stroke-opacity:1;stroke-dasharray:none"
         d="m 276.797,-217.598 0,2.547" /></g><g
       transform="translate(0,242)"
       id="g122"><path
         inkscape:connector-curvature="0"
         id="path124"
         style="fill:none;stroke:#000000;stroke-width:0.43635601;stroke-linecap:butt;stroke-linejoin:round;stroke-miterlimit:10;stroke-opacity:1;stroke-dasharray:none"
         d="m 276.797,-17.383 0,-2.472" /></g><text
       id="text126"
       transform="scale(1,-1)"
       x="269.52344"
       y="-13.393749"><tspan
         id="tspan128"
         sodipodi:role="line"
         y="-13.393749"
         x="269.52344 274.37595 279.22845"
         style="font-size:8.72753906px;font-variant:normal;writing-mode:lr-tb;fill:#000000;fill-opacity:1;fill-rule:nonzero;stroke:none;font-family:Nimbus Sans L;-inkscape-font-specification:NimbusSanL-Regu">300</tspan></text>
<g
       transform="translate(0,242)"
       id="g130"><path
         inkscape:connector-curvature="0"
         id="path132"
         style="fill:none;stroke:#000000;stroke-width:0.43635601;stroke-linecap:butt;stroke-linejoin:round;stroke-miterlimit:10;stroke-opacity:1;stroke-dasharray:none"
         d="m 52,-209.887 2.473,0" /></g><g
       transform="translate(0,242)"
       id="g134"><path
         inkscape:connector-curvature="0"
         id="path136"
         style="fill:none;stroke:#000000;stroke-width:0.43635601;stroke-linecap:butt;stroke-linejoin:round;stroke-miterlimit:10;stroke-opacity:1;stroke-dasharray:none"
         d="m 299.34,-209.887 -2.547,0" /></g><text
       id="text138"
       transform="scale(1,-1)"
       x="22.546875"
       y="-28.448437"><tspan
         id="tspan140"
         y="-28.448437"
         x="22.546875"
         style="font-size:8.72753906px;font-variant:normal;writing-mode:lr-tb;fill:#000000;fill-opacity:1;fill-rule:nonzero;stroke:none;font-family:Nimbus Sans L;-inkscape-font-specification:NimbusSanL-Regu">−</tspan></text>
<text
       id="text142"
       transform="scale(1,-1)"
       x="27.643759"
       y="-28.448437"><tspan
         id="tspan144"
         sodipodi:role="line"
         y="-28.448437"
         x="27.643759 32.496269 34.922527 39.775036 44.627548"
         style="font-size:8.72753906px;font-variant:normal;writing-mode:lr-tb;fill:#000000;fill-opacity:1;fill-rule:nonzero;stroke:none;font-family:Nimbus Sans L;-inkscape-font-specification:NimbusSanL-Regu">0.005</tspan></text>
<g
       transform="translate(0,242)"
       id="g146"><path
         inkscape:connector-curvature="0"
         id="path148"
         style="fill:none;stroke:#000000;stroke-width:0.43635601;stroke-linecap:butt;stroke-linejoin:round;stroke-miterlimit:10;stroke-opacity:1;stroke-dasharray:none"
         d="m 52,-171.344 2.473,0" /></g><g
       transform="translate(0,242)"
       id="g150"><path
         inkscape:connector-curvature="0"
         id="path152"
         style="fill:none;stroke:#000000;stroke-width:0.43635601;stroke-linecap:butt;stroke-linejoin:round;stroke-miterlimit:10;stroke-opacity:1;stroke-dasharray:none"
         d="m 299.34,-171.344 -2.547,0" /></g><text
       id="text154"
       transform="scale(1,-1)"
       x="44.652344"
       y="-66.995308"><tspan
         id="tspan156"
         y="-66.995308"
         x="44.652344"
         style="font-size:8.72753906px;font-variant:normal;writing-mode:lr-tb;fill:#000000;fill-opacity:1;fill-rule:nonzero;stroke:none;font-family:Nimbus Sans L;-inkscape-font-specification:NimbusSanL-Regu">0</tspan></text>
<g
       transform="translate(0,242)"
       id="g158"><path
         inkscape:connector-curvature="0"
         id="path160"
         style="fill:none;stroke:#000000;stroke-width:0.43635601;stroke-linecap:butt;stroke-linejoin:round;stroke-miterlimit:10;stroke-opacity:1;stroke-dasharray:none"
         d="m 52,-132.871 2.473,0" /></g><g
       transform="translate(0,242)"
       id="g162"><path
         inkscape:connector-curvature="0"
         id="path164"
         style="fill:none;stroke:#000000;stroke-width:0.43635601;stroke-linecap:butt;stroke-linejoin:round;stroke-miterlimit:10;stroke-opacity:1;stroke-dasharray:none"
         d="m 299.34,-132.871 -2.547,0" /></g><text
       id="text166"
       transform="scale(1,-1)"
       x="27.636719"
       y="-105.46797"><tspan
         id="tspan168"
         sodipodi:role="line"
         y="-105.46797"
         x="27.636719 32.489231 34.915485 39.767998 44.62051"
         style="font-size:8.72753906px;font-variant:normal;writing-mode:lr-tb;fill:#000000;fill-opacity:1;fill-rule:nonzero;stroke:none;font-family:Nimbus Sans L;-inkscape-font-specification:NimbusSanL-Regu">0.005</tspan></text>
<g
       transform="translate(0,242)"
       id="g170"><path
         inkscape:connector-curvature="0"
         id="path172"
         style="fill:none;stroke:#000000;stroke-width:0.43635601;stroke-linecap:butt;stroke-linejoin:round;stroke-miterlimit:10;stroke-opacity:1;stroke-dasharray:none"
         d="m 52,-94.324 2.473,0" /></g><g
       transform="translate(0,242)"
       id="g174"><path
         inkscape:connector-curvature="0"
         id="path176"
         style="fill:none;stroke:#000000;stroke-width:0.43635601;stroke-linecap:butt;stroke-linejoin:round;stroke-miterlimit:10;stroke-opacity:1;stroke-dasharray:none"
         d="m 299.34,-94.324 -2.547,0" /></g><text
       id="text178"
       transform="scale(1,-1)"
       x="32.507812"
       y="-144.01094"><tspan
         id="tspan180"
         sodipodi:role="line"
         y="-144.01094"
         x="32.507812 37.360325 39.786579 44.639091"
         style="font-size:8.72753906px;font-variant:normal;writing-mode:lr-tb;fill:#000000;fill-opacity:1;fill-rule:nonzero;stroke:none;font-family:Nimbus Sans L;-inkscape-font-specification:NimbusSanL-Regu">0.01</tspan></text>
<g
       transform="translate(0,242)"
       id="g182"><path
         inkscape:connector-curvature="0"
         id="path184"
         style="fill:none;stroke:#000000;stroke-width:0.43635601;stroke-linecap:butt;stroke-linejoin:round;stroke-miterlimit:10;stroke-opacity:1;stroke-dasharray:none"
         d="m 52,-55.855 2.473,0" /></g><g
       transform="translate(0,242)"
       id="g186"><path
         inkscape:connector-curvature="0"
         id="path188"
         style="fill:none;stroke:#000000;stroke-width:0.43635601;stroke-linecap:butt;stroke-linejoin:round;stroke-miterlimit:10;stroke-opacity:1;stroke-dasharray:none"
         d="m 299.34,-55.855 -2.547,0" /></g><text
       id="text190"
       transform="scale(1,-1)"
       x="27.636719"
       y="-182.4836"><tspan
         id="tspan192"
         sodipodi:role="line"
         y="-182.4836"
         x="27.636719 32.489231 34.915485 39.767998 44.62051"
         style="font-size:8.72753906px;font-variant:normal;writing-mode:lr-tb;fill:#000000;fill-opacity:1;fill-rule:nonzero;stroke:none;font-family:Nimbus Sans L;-inkscape-font-specification:NimbusSanL-Regu">0.015</tspan></text>
<g
       transform="translate(0,242)"
       id="g194"><path
         inkscape:connector-curvature="0"
         id="path196"
         style="fill:none;stroke:#000000;stroke-width:0.43635601;stroke-linecap:butt;stroke-linejoin:round;stroke-miterlimit:10;stroke-opacity:1;stroke-dasharray:none"
         d="m 52,-17.383 2.473,0" /></g><g
       transform="translate(0,242)"
       id="g198"><path
         inkscape:connector-curvature="0"
         id="path200"
         style="fill:none;stroke:#000000;stroke-width:0.43635601;stroke-linecap:butt;stroke-linejoin:round;stroke-miterlimit:10;stroke-opacity:1;stroke-dasharray:none"
         d="m 299.34,-17.383 -2.547,0" /></g><text
       id="text202"
       transform="scale(1,-1)"
       x="32.507812"
       y="-220.95625"><tspan
         id="tspan204"
         sodipodi:role="line"
         y="-220.95625"
         x="32.507812 37.360325 39.786579 44.639091"
         style="font-size:8.72753906px;font-variant:normal;writing-mode:lr-tb;fill:#000000;fill-opacity:1;fill-rule:nonzero;stroke:none;font-family:Nimbus Sans L;-inkscape-font-specification:NimbusSanL-Regu">0.02</tspan></text>
<g
       transform="translate(0,242)"
       id="g206"><path
         inkscape:connector-curvature="0"
         id="path208"
         style="fill:none;stroke:#000000;stroke-width:0.43635601;stroke-linecap:butt;stroke-linejoin:round;stroke-miterlimit:10;stroke-opacity:1;stroke-dasharray:none"
         d="m 52,-217.598 247.34,0" /></g><g
       transform="translate(0,242)"
       id="g210"><path
         inkscape:connector-curvature="0"
         id="path212"
         style="fill:none;stroke:#000000;stroke-width:0.43635601;stroke-linecap:butt;stroke-linejoin:round;stroke-miterlimit:10;stroke-opacity:1;stroke-dasharray:none"
         d="m 52,-17.383 247.34,0" /></g><g
       transform="translate(0,242)"
       id="g214"><path
         inkscape:connector-curvature="0"
         id="path216"
         style="fill:none;stroke:#000000;stroke-width:0.43635601;stroke-linecap:butt;stroke-linejoin:round;stroke-miterlimit:10;stroke-opacity:1;stroke-dasharray:none"
         d="m 52,-217.598 0,200.215" /></g><g
       transform="translate(0,242)"
       id="g218"><path
         inkscape:connector-curvature="0"
         id="path220"
         style="fill:none;stroke:#000000;stroke-width:0.43635601;stroke-linecap:butt;stroke-linejoin:round;stroke-miterlimit:10;stroke-opacity:1;stroke-dasharray:none"
         d="m 299.34,-217.598 0,200.215" /></g><g
       id="g222"><g
         id="g224"
         clip-path="url(#clipPath226)"><g
           id="g230"
           transform="translate(0,242)"><path
             d="m 52,-171.344 247.34,0"
             style="fill:none;stroke:#000000;stroke-opacity:1;stroke-width:0.436356;stroke-linecap:butt;stroke-linejoin:round;stroke-miterlimit:10;stroke-dasharray:1.291615,1.549937;stroke-dashoffset:0"
             id="path232" /></g></g></g><g
       id="g234"><g
         id="g236"
         clip-path="url(#clipPath238)"><g
           id="g242"
           transform="translate(0,242)"><path
             d="m 52,-171.344 0.727,0 0.726,39.418 0.727,7.418 0.8,0.438 0.727,-4.582 0.727,-7.274 0.8,-7.781 0.727,-6.981 0.73,-5.457 0.797,-3.707 0.731,-2.253 0.726,-1.02 0.727,-0.145 0.801,0.582 0.726,0.872 0.727,1.164 0.801,1.238 0.726,1.379 0.727,1.457 0.8,1.527 0.727,1.528 0.727,1.597 0.8,1.602 0.727,1.672 0.73,1.672 0.727,1.675 0.801,1.743 1.453,3.492 0.801,1.816 0.726,1.895 0.727,1.816 0.801,1.891 0.726,1.89 0.727,1.965 0.8,1.891 0.727,1.961 0.727,1.965 0.73,1.964 0.797,1.961 0.73,1.965 0.727,1.965 0.797,1.965 0.73,1.89 0.727,1.961 0.801,1.965 2.179,5.672 0.801,1.891 0.727,1.89 0.726,1.821 0.801,1.816 0.727,1.82 0.726,1.743 0.801,1.746 0.727,1.675 0.73,1.672 0.797,1.672 0.73,1.602 0.727,1.597 0.726,1.528 0.801,1.527 0.727,1.457 0.726,1.453 0.801,1.383 0.727,1.379 0.726,1.309 0.801,1.238 0.727,1.234 0.726,1.239 0.801,1.164 0.727,1.089 0.73,1.02 0.727,1.016 0.796,1.019 0.731,0.945 0.726,0.875 0.801,0.872 0.727,0.8 0.726,0.727 0.801,0.726 0.727,0.657 0.726,0.652 0.801,0.582 0.727,0.508 0.726,0.512 0.727,0.433 0.801,0.438 0.726,0.363 0.731,0.363 0.796,0.293 0.731,0.219 0.726,0.219 0.801,0.215 0.727,0.148 0.726,0.07 0.727,0.075 2.254,0 0.801,-0.075 0.726,-0.07 0.727,-0.148 0.801,-0.145 0.726,-0.144 0.731,-0.219 0.796,-0.219 0.731,-0.219 0.726,-0.289 0.727,-0.293 0.801,-0.363 0.726,-0.289 0.727,-0.363 0.801,-0.364 0.726,-0.363 0.727,-0.437 0.801,-0.438 0.726,-0.363 0.727,-0.438 0.801,-0.433 0.726,-0.512 0.731,-0.434 0.726,-0.437 0.801,-0.508 0.726,-0.437 0.727,-0.508 0.801,-0.438 0.726,-0.508 0.727,-0.511 0.801,-0.434 0.726,-0.437 0.727,-0.512 0.801,-0.434 1.453,-0.875 0.73,-0.433 0.797,-0.438 0.731,-0.437 0.726,-0.364 0.801,-0.363 1.453,-0.726 0.801,-0.364 0.726,-0.363 0.727,-0.293 0.726,-0.289 0.801,-0.219 0.727,-0.293 0.726,-0.215 0.801,-0.218 0.727,-0.145 0.73,-0.219 0.797,-0.148 0.731,-0.07 0.726,-0.075 0.801,-0.07 0.726,-0.074 2.254,0 0.727,0.074 0.726,0.07 0.801,0.145 0.727,0.148 0.726,0.145 0.801,0.219 0.727,0.218 0.73,0.215 0.797,0.293 0.731,0.289 0.726,0.367 0.727,0.36 0.8,0.367 0.727,0.434 0.727,0.511 0.8,0.434 0.727,0.512 0.726,0.582 0.801,0.508 0.727,0.656 0.726,0.578 0.801,0.656 0.727,0.727 0.73,0.656 0.727,0.727 0.797,0.8 0.73,0.727 0.727,0.801 0.8,0.871 0.727,0.875 0.727,0.871 0.8,0.871 1.453,1.891 0.727,0.949 0.801,0.945 0.726,1.016 0.727,1.019 0.801,1.09 0.726,1.02 0.731,1.089 0.797,1.09 0.73,1.094 0.727,1.16 0.8,1.164 2.18,3.492 0.801,1.235 1.453,2.476 0.801,1.235 0.726,1.308 0.727,1.239 0.801,1.308 0.726,1.309 0.731,1.308 0.797,1.309 0.726,1.309 0.731,1.308 0.726,1.383 0.801,1.309 0.727,1.308"
             style="fill:none;stroke:#ff0000;stroke-opacity:1;stroke-width:0.436356;stroke-linecap:butt;stroke-linejoin:round;stroke-miterlimit:10;stroke-dasharray:7.819504,2.932314;stroke-dashoffset:0"
             id="path244" /></g><g
           id="g246"
           transform="translate(0,242)"><path
             d="m 86.762,-90.18 0,-29.09"
             style="fill:none;stroke:#000000;stroke-opacity:1;stroke-width:0.436356;stroke-linecap:butt;stroke-linejoin:round;stroke-miterlimit:10;stroke-dasharray:none"
             id="path248" /></g><path
           d="m 86.98,151.82 c 0,-0.121 -0.097,-0.218 -0.218,-0.218 -0.121,0 -0.219,0.097 -0.219,0.218 0,0.121 0.098,0.219 0.219,0.219 0.121,0 0.218,-0.098 0.218,-0.219"
           style="fill:#000000;fill-opacity:1;fill-rule:nonzero;stroke:none"
           id="path250" /><path
           d="m 86.98,122.73 c 0,-0.121 -0.097,-0.218 -0.218,-0.218 -0.121,0 -0.219,0.097 -0.219,0.218 0,0.118 0.098,0.215 0.219,0.215 0.121,0 0.218,-0.097 0.218,-0.215"
           style="fill:#000000;fill-opacity:1;fill-rule:nonzero;stroke:none"
           id="path252" /><g
           id="g254"
           transform="translate(0,242)"><path
             d="m 106.98,-56 0,-26.473"
             style="fill:none;stroke:#000000;stroke-opacity:1;stroke-width:0.436356;stroke-linecap:butt;stroke-linejoin:round;stroke-miterlimit:10;stroke-dasharray:none"
             id="path256" /></g><path
           d="m 107.199,186 c 0,-0.121 -0.097,-0.219 -0.219,-0.219 -0.121,0 -0.218,0.098 -0.218,0.219 0,0.121 0.097,0.219 0.218,0.219 0.122,0 0.219,-0.098 0.219,-0.219"
           style="fill:#000000;fill-opacity:1;fill-rule:nonzero;stroke:none"
           id="path258" /><path
           d="m 107.199,159.527 c 0,-0.117 -0.097,-0.218 -0.219,-0.218 -0.121,0 -0.218,0.101 -0.218,0.218 0,0.121 0.097,0.219 0.218,0.219 0.122,0 0.219,-0.098 0.219,-0.219"
           style="fill:#000000;fill-opacity:1;fill-rule:nonzero;stroke:none"
           id="path260" /><g
           id="g262"
           transform="translate(0,242)"><path
             d="m 132.363,-36.582 0,-38.617"
             style="fill:none;stroke:#000000;stroke-opacity:1;stroke-width:0.436356;stroke-linecap:butt;stroke-linejoin:round;stroke-miterlimit:10;stroke-dasharray:none"
             id="path264" /></g><path
           d="m 132.578,205.418 c 0,-0.121 -0.098,-0.219 -0.215,-0.219 -0.121,0 -0.218,0.098 -0.218,0.219 0,0.121 0.097,0.219 0.218,0.219 0.117,0 0.215,-0.098 0.215,-0.219"
           style="fill:#000000;fill-opacity:1;fill-rule:nonzero;stroke:none"
           id="path266" /><path
           d="m 132.578,166.801 c 0,-0.121 -0.098,-0.219 -0.215,-0.219 -0.121,0 -0.218,0.098 -0.218,0.219 0,0.121 0.097,0.219 0.218,0.219 0.117,0 0.215,-0.098 0.215,-0.219"
           style="fill:#000000;fill-opacity:1;fill-rule:nonzero;stroke:none"
           id="path268" /><g
           id="g270"
           transform="translate(0,242)"><path
             d="m 157.453,-35.707 0,-57.527"
             style="fill:none;stroke:#000000;stroke-opacity:1;stroke-width:0.436356;stroke-linecap:butt;stroke-linejoin:round;stroke-miterlimit:10;stroke-dasharray:none"
             id="path272" /></g><path
           d="m 157.672,206.293 c 0,-0.121 -0.098,-0.219 -0.219,-0.219 -0.121,0 -0.219,0.098 -0.219,0.219 0,0.117 0.098,0.215 0.219,0.215 0.121,0 0.219,-0.098 0.219,-0.215"
           style="fill:#000000;fill-opacity:1;fill-rule:nonzero;stroke:none"
           id="path274" /><path
           d="m 157.672,148.766 c 0,-0.121 -0.098,-0.219 -0.219,-0.219 -0.121,0 -0.219,0.098 -0.219,0.219 0,0.121 0.098,0.218 0.219,0.218 0.121,0 0.219,-0.097 0.219,-0.218"
           style="fill:#000000;fill-opacity:1;fill-rule:nonzero;stroke:none"
           id="path276" /></g></g><g
       id="g278"><g
         id="g280"
         clip-path="url(#clipPath282)"><g
           id="g286"
           transform="translate(0,242)"><path
             d="m 182.105,-17.383 0,-38.254"
             style="fill:none;stroke:#000000;stroke-opacity:1;stroke-width:0.436356;stroke-linecap:butt;stroke-linejoin:round;stroke-miterlimit:10;stroke-dasharray:none"
             id="path288" /></g><path
           d="m 182.324,186.363 c 0,-0.117 -0.097,-0.218 -0.219,-0.218 -0.121,0 -0.218,0.101 -0.218,0.218 0,0.121 0.097,0.219 0.218,0.219 0.122,0 0.219,-0.098 0.219,-0.219"
           style="fill:#000000;fill-opacity:1;fill-rule:nonzero;stroke:none"
           id="path290" /></g></g><g
       id="g292"><path
         d="m 88.508,137.273 c 0,-0.961 -0.781,-1.746 -1.746,-1.746 -0.965,0 -1.746,0.785 -1.746,1.746 0,0.965 0.781,1.747 1.746,1.747 0.965,0 1.746,-0.782 1.746,-1.747"
         style="fill:#000000;fill-opacity:1;fill-rule:nonzero;stroke:none"
         id="path294" /><path
         d="m 108.727,172.766 c 0,-0.965 -0.782,-1.746 -1.747,-1.746 -0.964,0 -1.746,0.781 -1.746,1.746 0,0.964 0.782,1.746 1.746,1.746 0.965,0 1.747,-0.782 1.747,-1.746"
         style="fill:#000000;fill-opacity:1;fill-rule:nonzero;stroke:none"
         id="path296" /><path
         d="m 134.105,186.074 c 0,-0.965 -0.781,-1.746 -1.742,-1.746 -0.965,0 -1.746,0.781 -1.746,1.746 0,0.965 0.781,1.746 1.746,1.746 0.961,0 1.742,-0.781 1.742,-1.746"
         style="fill:#000000;fill-opacity:1;fill-rule:nonzero;stroke:none"
         id="path298" /><path
         d="m 159.199,177.566 c 0,-0.964 -0.785,-1.746 -1.746,-1.746 -0.965,0 -1.746,0.782 -1.746,1.746 0,0.961 0.781,1.743 1.746,1.743 0.961,0 1.746,-0.782 1.746,-1.743"
         style="fill:#000000;fill-opacity:1;fill-rule:nonzero;stroke:none"
         id="path300" /></g><g
       id="g302"><g
         id="g304"
         clip-path="url(#clipPath306)"><g
           id="g310"
           transform="translate(0,242)"><path
             d="m 86.762,-168.508 20.218,-0.945 25.383,3.348 25.09,-10.911 24.652,15.129 23.782,-22.836 23.855,19.055 24.727,-20.656 24.508,19.273 20.437,-23.781"
             style="fill:none;stroke:#00ffff;stroke-opacity:1;stroke-width:0.872713;stroke-linecap:butt;stroke-linejoin:round;stroke-miterlimit:10;stroke-dasharray:none"
             id="path312" /></g></g></g><g
       id="g314"
       transform="matrix(1,0,0,4.0666395,0,-207.88908)"><g
         id="g316"
         clip-path="url(#clipPath318)"><g
           id="g322"
           transform="translate(0,242)"><path
             d="m 86.762,-164.07 20.218,-1.02 25.383,1.895 25.09,3.851 24.652,2.621 23.782,0.871 23.855,8 24.727,-0.726 24.508,3.125 20.437,2.91"
             style="fill:none;stroke:#00ffff;stroke-width:0.87271303;stroke-linecap:butt;stroke-linejoin:round;stroke-miterlimit:10;stroke-opacity:1;stroke-dasharray:8.657308, 3.246491;stroke-dashoffset:0"
             id="path324"
             inkscape:connector-curvature="0" /></g></g></g><g
       id="g334"
       transform="translate(0,242)"><path
         d="m 86.762,-169.379 20.218,0.363 25.383,-0.871 25.09,-3.781 24.652,8.289 23.782,-8.363 23.855,2.762 24.727,2.835 24.508,2.547 20.437,-15.781"
         style="fill:none;stroke:#ffff00;stroke-width:0.87271303;stroke-linecap:butt;stroke-linejoin:round;stroke-miterlimit:10;stroke-opacity:1;stroke-dasharray:none"
         id="path336"
         inkscape:connector-curvature="0" /></g><g
       id="g338"
       transform="matrix(1,0,0,4.7920644,0,890.83978)"><path
         d="m 86.762,-167.633 20.218,0.727 25.383,-0.364 25.09,0.653 24.652,0.148 23.782,-0.074 23.855,1.164 24.727,-0.656 24.508,-0.215 20.437,1.16"
         style="fill:none;stroke:#ffff00;stroke-width:0.87271303;stroke-linecap:butt;stroke-linejoin:round;stroke-miterlimit:10;stroke-opacity:1;stroke-dasharray:8.657308, 3.246491;stroke-dashoffset:0"
         id="path340"
         inkscape:connector-curvature="0" /></g><g
       id="g342"><g
         id="g344"
         clip-path="url(#clipPath346)"><g
           id="g350"
           transform="translate(0,242)"><path
             d="m 86.762,-172.723 20.218,-3.785 25.383,-0.433 25.09,5.379 24.652,4.511 23.782,0.363 23.855,-4.726 24.727,1.816 24.508,-0.652 20.437,-4.945"
             style="fill:none;stroke:#00ff00;stroke-opacity:1;stroke-width:0.872713;stroke-linecap:butt;stroke-linejoin:round;stroke-miterlimit:10;stroke-dasharray:none"
             id="path352" /></g></g></g><g
       id="g354"
       transform="matrix(1,0,0,5.3169931,0,-308.29631)"><g
         id="g356"
         transform="translate(0,242)"><path
           d="m 86.762,-165.598 20.218,-1.164 25.383,-0.8 25.09,0.656 24.652,0.582 23.782,-0.801 23.855,0.656 24.727,-0.363 24.508,-0.945 20.437,0.507"
           style="fill:none;stroke:#00ff00;stroke-width:0.87271303;stroke-linecap:butt;stroke-linejoin:round;stroke-miterlimit:10;stroke-opacity:1;stroke-dasharray:8.657308, 3.246491;stroke-dashoffset:0"
           id="path358"
           inkscape:connector-curvature="0" /></g></g><g
       id="g372"
       transform="matrix(1,0,0,3.7698821,0,-206.99329)"><g
         id="g374"
         clip-path="url(#clipPath376)"><g
           id="g380"
           transform="translate(0,242)"><path
             d="m 86.762,-127.781 20.218,-30.254 25.383,-6.399 25.09,-0.363 24.652,-1.164 23.782,-0.582 23.855,0.363 24.727,-0.07 24.508,-0.945 20.437,-0.075"
             style="fill:none;stroke:#ff0000;stroke-width:0.87271303;stroke-linecap:butt;stroke-linejoin:round;stroke-miterlimit:10;stroke-opacity:1;stroke-dasharray:8.657308, 3.246491;stroke-dashoffset:0"
             id="path382"
             inkscape:connector-curvature="0" /></g></g></g><g
       id="g360"><g
         id="g362"
         clip-path="url(#clipPath364)"><g
           id="g368"
           transform="translate(0,242)"><path
             d="m 86.762,-174.25 20.218,1.453 25.383,5.02 25.09,-4.512 24.652,-1.453 23.782,0.289 23.855,-2.035 24.727,7.343 24.508,-7.488 20.437,-1.965"
             style="fill:none;stroke:#ff0000;stroke-opacity:1;stroke-width:0.872713;stroke-linecap:butt;stroke-linejoin:round;stroke-miterlimit:10;stroke-dasharray:none"
             id="path370" /></g></g></g><g
       id="g384"><g
         id="g386"
         clip-path="url(#clipPath388)"><g
           id="g392"
           transform="translate(0,242)"><path
             d="m 86.762,-164.941 20.218,-5.457 25.383,2.691 25.09,-4 24.652,1.965 23.782,-12.801 23.855,19.926 24.727,-5.235 24.508,-0.945 20.437,-18.254"
             style="fill:none;stroke:#ff00ff;stroke-opacity:1;stroke-width:0.872713;stroke-linecap:butt;stroke-linejoin:round;stroke-miterlimit:10;stroke-dasharray:none"
             id="path394" /></g></g></g><g
       id="g396"
       transform="matrix(1,0,0,4.8192295,0,-289.3661)"><g
         id="g398"
         clip-path="url(#clipPath400)"><g
           id="g404"
           transform="translate(0,242)"><path
             d="m 86.762,-151.414 20.218,-6.184 25.383,0.075 25.09,-2.766 24.652,6.254 23.782,-1.16 23.855,3.125 24.727,1.816 24.508,-4.07 20.437,1.383"
             style="fill:none;stroke:#ff00ff;stroke-width:0.87271303;stroke-linecap:butt;stroke-linejoin:round;stroke-miterlimit:10;stroke-opacity:1;stroke-dasharray:8.657308, 3.246491;stroke-dashoffset:0"
             id="path406"
             inkscape:connector-curvature="0" /></g></g></g><g
       transform="translate(0,242)"
       id="g410"><path
         inkscape:connector-curvature="0"
         id="path412"
         style="fill:none;stroke:#0000ff;stroke-width:0.87271303;stroke-linecap:butt;stroke-linejoin:round;stroke-miterlimit:10;stroke-opacity:1;stroke-dasharray:none"
         d="m 86.762,-146.25 20.218,-15.129 25.383,3.129 25.09,-15.637 24.652,3.125" /></g><g
       transform="matrix(1,0,0,3.9768233,0,727.76531)"
       id="g414"><path
         inkscape:connector-curvature="0"
         id="path416"
         style="fill:none;stroke:#0000ff;stroke-width:0.87271303;stroke-linecap:butt;stroke-linejoin:round;stroke-miterlimit:10;stroke-opacity:1;stroke-dasharray:8.657308, 3.246491;stroke-dashoffset:0"
         d="m 86.762,-131.926 20.218,-6.398 25.383,-12.293 25.09,-3.344 24.652,6.617" /></g><text
       id="text418"
       transform="scale(1,-1)"
       x="158.10547"
       y="-2.995311"><tspan
         id="tspan420"
         sodipodi:role="line"
         y="-2.995311"
         x="158.10547 165.3755 170.22803 172.16554 174.5918 176.52931 181.38182 186.26051 188.19803"
         style="font-size:8.72753906px;font-variant:normal;writing-mode:lr-tb;fill:#000000;fill-opacity:1;fill-rule:nonzero;stroke:none;font-family:Nimbus Sans L;-inkscape-font-specification:NimbusSanL-Regu">Multipole</tspan></text>
<text
       id="text422"
       transform="matrix(0,1,1,0,0,0)"
       x="90.074219"
       y="13.11797"><tspan
         id="tspan424"
         sodipodi:role="line"
         y="13.11797"
         x="90.074219 92.011734 94.918007 96.855515 101.9524 106.80491 109.71118"
         style="font-size:8.72753906px;font-variant:normal;writing-mode:lr-tb;fill:#000000;fill-opacity:1;fill-rule:nonzero;stroke:none;font-family:Nimbus Sans L;-inkscape-font-specification:NimbusSanL-Regu">l(l+1)C</tspan></text>
<text
       id="text426"
       transform="matrix(0,1,1,0,0,0)"
       x="115.96484"
       y="17.563738"><tspan
         id="tspan428"
         y="17.563738"
         x="115.96484"
         style="font-size:6.98144484px;font-variant:normal;writing-mode:lr-tb;fill:#000000;fill-opacity:1;fill-rule:nonzero;stroke:none;font-family:Nimbus Sans L;-inkscape-font-specification:NimbusSanL-Regu">l</tspan></text>
<text
       id="text430"
       transform="matrix(0,1,1,0,0,0)"
       x="115.96484"
       y="8.8371744"><tspan
         id="tspan432"
         sodipodi:role="line"
         y="8.8371744"
         x="115.96484 120.62147"
         style="font-size:6.98144484px;font-variant:normal;writing-mode:lr-tb;fill:#000000;fill-opacity:1;fill-rule:nonzero;stroke:none;font-family:Nimbus Sans L;-inkscape-font-specification:NimbusSanL-Regu">BB</tspan></text>
<text
       id="text434"
       transform="matrix(0,1,1,0,0,0)"
       x="125.27344"
       y="13.11797"><tspan
         id="tspan436"
         sodipodi:role="line"
         y="13.11797"
         x="125.27344 127.6997"
         style="font-size:8.72753906px;font-variant:normal;writing-mode:lr-tb;fill:#000000;fill-opacity:1;fill-rule:nonzero;stroke:none;font-family:Nimbus Sans L;-inkscape-font-specification:NimbusSanL-Regu">/2</tspan></text>
<text
       id="text438"
       transform="matrix(0,1,1,0,0,0)"
       x="132.54688"
       y="12.740689"><tspan
         id="tspan440"
         y="12.740689"
         x="132.54688"
         style="font-size:8.72753906px;font-variant:normal;font-weight:normal;writing-mode:lr-tb;fill:#000000;fill-opacity:1;fill-rule:nonzero;stroke:none;font-family:Standard Symbols L;-inkscape-font-specification:StandardSymL">π</tspan></text>
<text
       id="text442"
       transform="matrix(0,1,1,0,0,0)"
       x="139.69922"
       y="13.11797"><tspan
         id="tspan444"
         y="13.11797"
         x="139.69922"
         style="font-size:8.72753906px;font-variant:normal;writing-mode:lr-tb;fill:#000000;fill-opacity:1;fill-rule:nonzero;stroke:none;font-family:Nimbus Sans L;-inkscape-font-specification:NimbusSanL-Regu">[</tspan></text>
<text
       id="text446"
       transform="matrix(0,1,1,0,0,0)"
       x="142.07422"
       y="12.740689"><tspan
         id="tspan448"
         y="12.740689"
         x="142.07422"
         style="font-size:8.72753906px;font-variant:normal;font-weight:normal;writing-mode:lr-tb;fill:#000000;fill-opacity:1;fill-rule:nonzero;stroke:none;font-family:Standard Symbols L;-inkscape-font-specification:StandardSymL">µ</tspan></text>
<text
       id="text450"
       transform="matrix(0,1,1,0,0,0)"
       x="147.09375"
       y="13.11797"><tspan
         id="tspan452"
         y="13.11797"
         x="147.09375"
         style="font-size:8.72753906px;font-variant:normal;writing-mode:lr-tb;fill:#000000;fill-opacity:1;fill-rule:nonzero;stroke:none;font-family:Nimbus Sans L;-inkscape-font-specification:NimbusSanL-Regu">K</tspan></text>
<text
       id="text454"
       transform="matrix(0,1,1,0,0,0)"
       x="152.91016"
       y="8.8371744"><tspan
         id="tspan456"
         y="8.8371744"
         x="152.91016"
         style="font-size:6.98144484px;font-variant:normal;writing-mode:lr-tb;fill:#000000;fill-opacity:1;fill-rule:nonzero;stroke:none;font-family:Nimbus Sans L;-inkscape-font-specification:NimbusSanL-Regu">2</tspan></text>
<text
       id="text458"
       transform="matrix(0,1,1,0,0,0)"
       x="156.76562"
       y="13.11797"><tspan
         id="tspan460"
         y="13.11797"
         x="156.76562"
         style="font-size:8.72753906px;font-variant:normal;writing-mode:lr-tb;fill:#000000;fill-opacity:1;fill-rule:nonzero;stroke:none;font-family:Nimbus Sans L;-inkscape-font-specification:NimbusSanL-Regu">]</tspan></text>
<text
       id="text462"
       transform="scale(1,-1)"
       x="250.83203"
       y="-210.26485"><tspan
         id="tspan464"
         sodipodi:role="line"
         y="-210.26485"
         x="250.83203 252.76955 257.62207 262.47458 266.83835 271.93521 274.84149 279.96457 284.81708 287.24332"
         style="font-size:8.72753906px;font-variant:normal;writing-mode:lr-tb;fill:#000000;fill-opacity:1;fill-rule:nonzero;stroke:none;font-family:Nimbus Sans L;-inkscape-font-specification:NimbusSanL-Regu">lens+r=0.2</tspan></text>
<g
       transform="translate(0,242)"
       id="g466"><path
         inkscape:connector-curvature="0"
         id="path468"
         style="fill:none;stroke:#ff0000;stroke-width:0.43635601;stroke-linecap:butt;stroke-linejoin:round;stroke-miterlimit:10;stroke-opacity:1;stroke-dasharray:7.819504, 2.932314;stroke-dashoffset:0"
         d="m 222.18,-28.145 26.035,0" /></g><text
       id="text470"
       transform="scale(1,-1)"
       x="250.83203"
       y="-199.50311"><tspan
         id="tspan472"
         sodipodi:role="line"
         y="-199.50311"
         x="250.83203 256.65329 262.47458"
         style="font-size:8.72753906px;font-variant:normal;writing-mode:lr-tb;fill:#000000;fill-opacity:1;fill-rule:nonzero;stroke:none;font-family:Nimbus Sans L;-inkscape-font-specification:NimbusSanL-Regu">BSS</tspan></text>
<g
       transform="translate(0,242)"
       id="g474"><path
         inkscape:connector-curvature="0"
         id="path476"
         style="fill:none;stroke:#00ffff;stroke-width:0.87271303;stroke-linecap:butt;stroke-linejoin:round;stroke-miterlimit:10;stroke-opacity:1;stroke-dasharray:none"
         d="m 222.18,-38.906 26.035,0" /></g><text
       id="text478"
       transform="scale(1,-1)"
       x="250.83203"
       y="-188.7375"><tspan
         id="tspan480"
         sodipodi:role="line"
         y="-188.7375"
         x="250.83203 255.68454 261.5058"
         style="font-size:8.72753906px;font-variant:normal;writing-mode:lr-tb;fill:#000000;fill-opacity:1;fill-rule:nonzero;stroke:none;font-family:Nimbus Sans L;-inkscape-font-specification:NimbusSanL-Regu">LSA</tspan></text>
<g
       transform="translate(0,242)"
       id="g482"><path
         inkscape:connector-curvature="0"
         id="path484"
         style="fill:none;stroke:#ffff00;stroke-width:0.87271303;stroke-linecap:butt;stroke-linejoin:round;stroke-miterlimit:10;stroke-opacity:1;stroke-dasharray:none"
         d="m 222.18,-49.672 26.035,0" /></g><text
       id="text486"
       transform="scale(1,-1)"
       x="250.83203"
       y="-177.97578"><tspan
         id="tspan488"
         sodipodi:role="line"
         y="-177.97578"
         x="250.83203 256.16455 262.46585"
         style="font-size:8.72753906px;font-variant:normal;writing-mode:lr-tb;fill:#000000;fill-opacity:1;fill-rule:nonzero;stroke:none;font-family:Nimbus Sans L;-inkscape-font-specification:NimbusSanL-Regu">FDS</tspan></text>
<g
       transform="translate(0,242)"
       id="g490"><path
         inkscape:connector-curvature="0"
         id="path492"
         style="fill:none;stroke:#00ff00;stroke-width:0.87271303;stroke-linecap:butt;stroke-linejoin:round;stroke-miterlimit:10;stroke-opacity:1;stroke-dasharray:none"
         d="m 222.18,-60.434 26.035,0" /></g><text
       id="text494"
       transform="scale(1,-1)"
       x="250.83203"
       y="-167.28436"><tspan
         id="tspan496"
         sodipodi:role="line"
         y="-167.28436"
         x="250.83203 256.65329 262.47458"
         style="font-size:8.72753906px;font-variant:normal;writing-mode:lr-tb;fill:#000000;fill-opacity:1;fill-rule:nonzero;stroke:none;font-family:Nimbus Sans L;-inkscape-font-specification:NimbusSanL-Regu">PSM</tspan></text>
<g
       transform="translate(0,242)"
       id="g498"><path
         inkscape:connector-curvature="0"
         id="path500"
         style="fill:none;stroke:#ff0000;stroke-width:0.87271303;stroke-linecap:butt;stroke-linejoin:round;stroke-miterlimit:10;stroke-opacity:1;stroke-dasharray:none"
         d="m 222.18,-71.125 26.035,0" /></g><text
       id="text502"
       transform="scale(1,-1)"
       x="250.83203"
       y="-156.51875"><tspan
         id="tspan504"
         sodipodi:role="line"
         y="-156.51875"
         x="250.83203 257.1333 263.4346 270.70465"
         style="font-size:8.72753906px;font-variant:normal;writing-mode:lr-tb;fill:#000000;fill-opacity:1;fill-rule:nonzero;stroke:none;font-family:Nimbus Sans L;-inkscape-font-specification:NimbusSanL-Regu">DDM1</tspan></text>
<g
       transform="translate(0,242)"
       id="g506"><path
         inkscape:connector-curvature="0"
         id="path508"
         style="fill:none;stroke:#ff00ff;stroke-width:0.87271303;stroke-linecap:butt;stroke-linejoin:round;stroke-miterlimit:10;stroke-opacity:1;stroke-dasharray:none"
         d="m 222.18,-81.891 26.035,0" /></g><text
       id="text510"
       transform="scale(1,-1)"
       x="250.83203"
       y="-145.75703"><tspan
         id="tspan512"
         sodipodi:role="line"
         y="-145.75703"
         x="250.83203 257.1333 263.4346 270.70465"
         style="font-size:8.72753906px;font-variant:normal;writing-mode:lr-tb;fill:#000000;fill-opacity:1;fill-rule:nonzero;stroke:none;font-family:Nimbus Sans L;-inkscape-font-specification:NimbusSanL-Regu">DDM2</tspan></text>
<g
       transform="translate(0,242)"
       id="g514"><path
         inkscape:connector-curvature="0"
         id="path516"
         style="fill:none;stroke:#0000ff;stroke-width:0.87271303;stroke-linecap:butt;stroke-linejoin:round;stroke-miterlimit:10;stroke-opacity:1;stroke-dasharray:none"
         d="m 222.18,-92.652 26.035,0" /></g></g></svg>